<?xml version="1.0" encoding="utf-8"?>
<!-- Generator: Adobe Illustrator 17.0.0, SVG Export Plug-In . SVG Version: 6.00 Build 0)  -->
<!DOCTYPE svg PUBLIC "-//W3C//DTD SVG 1.1//EN" "http://www.w3.org/Graphics/SVG/1.1/DTD/svg11.dtd">
<svg version="1.1" xmlns="http://www.w3.org/2000/svg" xmlns:xlink="http://www.w3.org/1999/xlink" x="0px" y="0px" width="100px"
	 height="100px" viewBox="0 0 100 100" enable-background="new 0 0 100 100" xml:space="preserve">
<g id="Layer_2">
</g>
<g id="Layer_1">
	<g>
		<g>
			<g>
				<path fill="#FFFFFF" d="M67.905,13.761c-0.005,0.007-0.743-0.333-1.639-0.756l-2.58-1.07c-0.927-0.35-1.678-0.69-1.669-0.757
					s-0.011-0.932-0.043-1.922l-0.199-6.07c-0.032-0.99-0.862-1.913-1.843-2.051l-6.294-0.885c-0.981-0.138-2.049,0.515-2.373,1.451
					L49.184,7.71c-0.324,0.936-1.399,1.752-2.387,1.812l-2.812,0.299c-0.981,0.14-1.798,0.216-1.816,0.168s-0.446-0.785-0.951-1.637
					l-3.099-5.229c-0.505-0.852-1.676-1.262-2.603-0.911l-5.942,2.251c-0.926,0.351-1.549,1.437-1.383,2.414l1.061,6.241
					c0.166,0.977-0.382,2.211-1.217,2.744l-2.33,1.628c-0.79,0.597-1.468,1.061-1.505,1.03c-0.038-0.031-0.766-0.47-1.618-0.975
					l-5.228-3.097c-0.852-0.505-2.076-0.302-2.72,0.451l-4.13,4.834c-0.644,0.753-0.67,2.007-0.059,2.787l3.912,4.99
					c0.611,0.78,0.697,2.045,0.191,2.812c-0.506,0.767-1.979,4.47-2.026,4.461c-0.048-0.009-0.896-0.052-1.886-0.096l-5.813-0.253
					c-0.99-0.043-1.964,0.715-2.166,1.685l-1.292,6.217c-0.202,0.97,0.379,2.08,1.291,2.468l5.699,2.421
					c0.912,0.387,1.662,1.515,1.667,2.505l0.309,4.794c0.111,0.984,0.159,1.802,0.107,1.816c-0.052,0.014-0.799,0.427-1.66,0.917
					l-5.3,3.015c-0.861,0.49-1.291,1.653-0.955,2.585l2.151,5.971c0.336,0.932,1.412,1.572,2.391,1.422l6.266-0.958
					c0.979-0.15,2.222,0.408,2.761,1.239l3.624,4.884c0.636,0.76,1.127,1.42,1.091,1.467c-0.036,0.047-0.431,0.809-0.879,1.693
					l-2.748,5.426c-0.448,0.884-0.164,2.092,0.63,2.684l5.092,3.801c0.794,0.593,2.044,0.533,2.778-0.132l4.735-4.289
					c0.734-0.665,1.337-1.211,1.339-1.214s0.738,0.34,1.635,0.761l2.588,1.061c0.928,0.347,1.68,0.686,1.671,0.753
					c-0.009,0.067,0.011,0.932,0.043,1.922l0.2,6.084c0.033,0.99,0.862,1.912,1.843,2.05l6.289,0.879
					c0.981,0.137,2.049-0.516,2.374-1.452l2.093-6.032c0.325-0.936,0.591-1.717,0.592-1.735c0.001-0.018,0.811-0.085,1.799-0.148
					l2.754-0.306c0.98-0.142,1.806-0.196,1.835-0.12s0.466,0.834,0.971,1.687l3.102,5.233c0.505,0.852,1.676,1.262,2.603,0.91
					l5.938-2.253c0.926-0.351,1.549-1.438,1.383-2.415l-1.067-6.293c-0.166-0.977-0.312-1.8-0.326-1.829
					c-0.013-0.029,0.658-0.491,1.491-1.026l2.247-1.579c0.789-0.599,1.497-1.037,1.574-0.972c0.077,0.065,0.837,0.53,1.69,1.035
					l5.235,3.098c0.853,0.505,2.076,0.301,2.719-0.452l4.124-4.83c0.643-0.753,0.666-2.005,0.051-2.782l-3.966-5.008
					c-0.615-0.777-1.107-1.585-1.093-1.796c0.014-0.211,0.432-1.085,0.928-1.942l1.351-3.166c0.372-0.918,0.762-1.651,0.867-1.629
					c0.105,0.023,0.989,0.183,1.964,0.357L93.9,63.74c0.975,0.174,1.938-0.478,2.14-1.448l1.292-6.216
					c0.202-0.97-0.376-2.088-1.284-2.485l-5.301-2.318c-0.908-0.397-1.61-0.711-1.561-0.699c0.049,0.012,0.099-0.788,0.11-1.778
					l-0.263-4.659c-0.093-0.986-0.075-1.817,0.039-1.846c0.114-0.029,0.913-0.453,1.774-0.941l5.313-3.014
					c0.862-0.489,1.293-1.652,0.959-2.584l-2.141-5.972c-0.334-0.933-1.409-1.572-2.388-1.422l-6.301,0.967
					c-0.979,0.15-1.798,0.282-1.82,0.293c-0.022,0.011-0.48-0.662-1.017-1.494l-3.567-4.847c-0.633-0.762-1.108-1.442-1.055-1.511
					c0.053-0.069,0.462-0.849,0.91-1.733l2.742-5.418c0.447-0.884,0.164-2.092-0.63-2.685l-5.09-3.803
					c-0.794-0.593-2.044-0.534-2.778,0.131L69.25,12.54C68.515,13.205,67.91,13.755,67.905,13.761z"/>
			</g>
		</g>
		<g>
			<defs>
				<path id="SVGID_59_" d="M81.841,25.978c9.75,25.369-0.724,43.384-15.587,53.134c-14.871,9.75-34.823,5.601-44.565-9.262
					c-3.047-4.644-4.861-9.762-5.463-14.902l-4.408-4.904l1.834-21.499L81.841,25.978z"/>
			</defs>
			<clipPath id="SVGID_2_">
				<use xlink:href="#SVGID_59_"  overflow="visible"/>
			</clipPath>
			<g clip-path="url(#SVGID_2_)">
				<path fill-rule="evenodd" clip-rule="evenodd" fill="#E02726" d="M24.023,48.344c0.476-0.004,0.952-0.024,1.425-0.024
					c4.176-0.008,8.356,0,12.533-0.016c0.26,0,0.681-0.087,0.759-0.256c0.496-1.051,0.917-2.137,1.402-3.306
					c-1.791,0-3.456,0-5.097,0c-0.044-0.106-0.079-0.154-0.079-0.193c-0.008-1-0.012-2-0.016-3c-0.008-1.63-0.842-2.539-2.472-2.555
					c-3.302-0.027-6.601-0.031-9.903,0c-1.637,0.016-2.452,0.905-2.456,2.547c0,1.062,0,2.129,0,3.22c-0.413,0-0.712,0-1.008,0
					c-1.838,0.008-2.704,0.881-2.704,2.716c0,2.279,0,4.554,0,6.833c0,4.971,0,9.943,0,15.123c0.134-0.307,0.217-0.433,0.244-0.567
					c1.208-5.755,2.37-11.525,3.645-17.268C20.795,49.339,21.791,48.367,24.023,48.344z"/>
				<path fill-rule="evenodd" clip-rule="evenodd" fill="#E02726" d="M68.549,50.445c-0.343,0-0.587,0-0.831,0
					c-12.903,0-25.805,0-38.708,0c-0.401,0-0.807-0.008-1.197,0.063c-0.76,0.126-1.256,0.559-1.405,1.346
					c-0.047,0.244-0.13,0.48-0.22,0.708c-2.791,6.888-5.586,13.769-8.38,20.653c-0.146,0.362-0.287,0.724-0.488,1.224
					c0.488,0,0.811,0,1.133,0c12.702,0,25.408-0.008,38.114,0.004c2.535,0.004,2.417-0.319,3.149-2.145
					c2.704-6.786,5.463-13.548,8.207-20.318C68.115,51.5,68.313,51.02,68.549,50.445z"/>
				<path fill-rule="evenodd" clip-rule="evenodd" fill="#E02726" d="M82.518,43.738C71.729,39.294,60.94,34.85,50.151,30.403
					c-0.244-0.098-0.492-0.177-0.779-0.283c-2.503,6.081-4.979,12.08-7.494,18.193c1.822,0,3.495-0.023,5.164,0.008
					c0.532,0.016,0.795-0.154,0.996-0.653c1.326-3.283,2.684-6.55,4.035-9.825c0.102-0.244,0.216-0.488,0.331-0.74
					c0.586,0.244,1.102,0.464,1.634,0.689c-1.445,3.507-2.854,6.931-4.326,10.521c1,0,1.826-0.039,2.641,0.012
					c0.571,0.035,0.842-0.169,1.051-0.689c1.047-2.614,2.13-5.216,3.2-7.821c0.11-0.268,0.236-0.527,0.378-0.838
					c0.583,0.256,1.094,0.48,1.626,0.709c-1.189,2.901-2.342,5.707-3.547,8.628c0.984,0,1.85-0.031,2.716,0.008
					c0.5,0.024,0.748-0.134,0.937-0.614c0.669-1.724,1.389-3.421,2.098-5.125c0.232-0.567,0.484-1.13,0.736-1.712
					c0.575,0.24,1.075,0.449,1.634,0.681c-0.917,2.236-1.819,4.436-2.771,6.762c0.976,0,1.819-0.039,2.657,0.012
					c0.571,0.035,0.834-0.177,1.035-0.701c0.63-1.622,1.315-3.224,2-4.877c0.583,0.244,1.102,0.464,1.649,0.693
					c-0.665,1.63-1.299,3.188-1.984,4.873c1.023,0,1.893-0.023,2.759,0.008c0.476,0.02,0.704-0.154,0.874-0.602
					c0.382-1.019,0.83-2.019,1.275-3.082c0.571,0.236,1.09,0.449,1.669,0.685c-2.913,7.187-5.798,14.311-8.703,21.475
					c3.153,1.346,6.254,2.669,9.419,4.015c0.141-0.331,0.252-0.575,0.354-0.819c2.196-5.345,4.397-10.691,6.593-16.04
					c1.118-2.72,2.244-5.44,3.362-8.16C83.903,44.494,83.813,44.274,82.518,43.738z M69.84,64.19
					c-0.599-0.244-1.067-0.433-1.606-0.646c2.342-5.692,4.661-11.324,7.006-17.028c0.559,0.229,1.074,0.445,1.692,0.701
					C74.567,52.882,72.221,58.499,69.84,64.19z"/>
			</g>
		</g>
	</g>
</g>
<g id="Layer_3">
</g>
</svg>
