<?xml version="1.0" encoding="utf-8"?>
<!-- Generator: Adobe Illustrator 17.0.0, SVG Export Plug-In . SVG Version: 6.00 Build 0)  -->
<!DOCTYPE svg PUBLIC "-//W3C//DTD SVG 1.1//EN" "http://www.w3.org/Graphics/SVG/1.1/DTD/svg11.dtd">
<svg version="1.1" xmlns="http://www.w3.org/2000/svg" xmlns:xlink="http://www.w3.org/1999/xlink" x="0px" y="0px" width="100px"
	 height="100px" viewBox="0 0 100 100" enable-background="new 0 0 100 100" xml:space="preserve">
<g id="Layer_2">
</g>
<g id="Layer_1">
	<g>
		<g>
			<path fill="#FFFFFF" d="M89.683,49.486c-0.033-0.003-0.106-0.964-0.163-2.137c-0.057-1.173-0.389-4.264-0.294-4.299
				s1.062-0.566,2.149-1.181l4.542-2.568c1.087-0.615,1.633-2.08,1.214-3.256l-1.842-5.169c-0.419-1.176-1.773-1.988-3.008-1.804
				l-5.465,0.815c-1.235,0.184-2.39,0.238-2.568,0.12c-0.177-0.118-0.756-0.965-1.285-1.882c-0.53-0.917-3.092-4.168-3.019-4.248
				c0.073-0.081,0.789-0.929,1.591-1.886l2.466-2.941c0.802-0.957,0.695-2.419-0.238-3.248l-4.099-3.644
				c-0.933-0.83-2.518-0.901-3.522-0.159l-3.955,2.924c-1.004,0.742-1.796,1.32-1.76,1.283c0.036-0.037-0.815-0.586-1.89-1.221
				l-3.395-1.689c-1.136-0.518-2.039-1.036-2.007-1.15c0.032-0.114,0.064-1.23,0.072-2.478l0.031-5.243
				c0.007-1.249-0.992-2.451-2.221-2.671l-5.395-0.968C54.39,0.563,53.015,1.336,52.564,2.5l-1.991,5.139
				c-0.451,1.164-0.821,2.137-0.823,2.162s-1.023,0.097-2.271,0.162l-5.121,0.58c-1.23,0.214-2.265,0.322-2.299,0.24
				c-0.034-0.081-0.622-1.002-1.307-2.046l-2.856-4.354c-0.685-1.044-2.183-1.494-3.33-0.999L27.526,5.56
				c-1.146,0.495-1.868,1.898-1.603,3.118l1.172,5.394c0.265,1.22,0.484,2.225,0.488,2.233c0.003,0.008-0.783,0.564-1.747,1.236
				s-3.411,2.651-3.465,2.61c-0.054-0.041-1.001-0.555-2.103-1.141l-4.598-2.446c-1.102-0.587-2.632-0.26-3.399,0.725l-3.373,4.333
				c-0.767,0.985-0.724,2.563,0.095,3.505l3.605,4.148c0.819,0.942,1.055,2.59,0.523,3.661c-0.531,1.071-1.706,3.963-1.757,3.955
				c-0.051-0.008-1.114-0.002-2.363,0.015l-5.213,0.069c-1.249,0.017-2.433,1.039-2.631,2.272l-0.873,5.421
				c-0.198,1.233,0.598,2.595,1.769,3.027l5.128,1.892c1.172,0.432,2.175,1.76,2.229,2.95c0.054,1.19,0.426,4.316,0.379,4.333
				c-0.046,0.017-0.973,0.533-2.061,1.147L3.19,60.581c-1.087,0.614-1.634,2.079-1.215,3.256l1.843,5.176
				c0.419,1.176,1.773,1.993,3.009,1.815l5.422-0.781c1.236-0.178,2.587,0.353,3.003,1.181c0.416,0.827,2.911,3.973,2.879,4.01
				c-0.032,0.037-0.606,0.929-1.275,1.984l-2.653,4.18c-0.669,1.054-0.453,2.596,0.48,3.426l4.1,3.646
				c0.933,0.83,2.512,0.893,3.508,0.14l4.251-3.213c0.996-0.753,2.699-0.864,3.785-0.247l3.528,1.731
				c1.145,0.498,2.071,0.948,2.058,1c-0.014,0.052-0.029,1.117-0.035,2.366l-0.024,5.232c-0.006,1.249,0.996,2.449,2.225,2.668
				l5.399,0.96c1.229,0.219,2.605-0.555,3.057-1.719l1.981-5.104c0.452-1.164,1.841-2.172,3.088-2.239l5.183-0.609
				c1.23-0.217,2.255-0.35,2.278-0.295c0.023,0.055,0.602,0.955,1.287,1.999l2.86,4.364c0.684,1.044,2.183,1.496,3.331,1.004
				l5.217-2.238c1.148-0.492,1.888-1.897,1.645-3.122l-1.076-5.43c-0.243-1.225-0.442-2.23-0.443-2.234
				c-0.001-0.004,0.745-0.546,1.659-1.205c0.913-0.659,3.295-2.636,3.325-2.588s0.954,0.57,2.054,1.16l4.571,2.451
				c1.1,0.59,2.627,0.266,3.392-0.721l3.35-4.322c0.765-0.987,0.72-2.565-0.1-3.507l-3.629-4.17c-0.82-0.942-1.504-1.72-1.521-1.73
				c-0.017-0.009,0.398-0.888,0.921-1.951c0.523-1.064,1.7-3.929,1.78-3.916s1.167,0.009,2.416-0.007l5.217-0.069
				c1.249-0.017,2.432-1.039,2.63-2.272l0.869-5.419c0.198-1.233-0.599-2.596-1.77-3.029l-5.177-1.913
				C90.7,49.845,89.715,49.488,89.683,49.486z"/>
		</g>
	</g>
	<g>
		<path fill="#E02726" d="M56.542,35.89H22.687c-2.004,0-3.765,2.367-3.765,4.372v19.49c0,2.004,1.761,4.138,3.765,4.138h2.323
			c-0.001,0-0.008-0.364-0.008-0.42c0-3.648,2.957-6.732,6.604-6.732c3.648,0,6.605,3.148,6.605,6.795
			c0,0.056-0.007,0.356-0.008,0.356h18.339c2.004,0,3.38-2.134,3.38-4.138v-19.49C59.922,38.258,58.546,35.89,56.542,35.89z"/>
		<circle fill="#E02726" cx="71.729" cy="63.381" r="5.779"/>
		<circle fill="#E02726" cx="31.607" cy="63.381" r="5.779"/>
		<path fill="#E02726" d="M81.388,51.777c0,0-1.548-9.603-17.691-10.747c-0.937,0-1.775,0.76-1.775,1.697v9.05
			c0,0.071,0.012,0.139,0.021,0.208c-0.009,0.069-0.021,0.137-0.021,0.208v9.002c0,0.934,0.987,1.695,1.921,1.695h1.298
			c0.173-4,3.052-6.274,6.588-6.274c3.536,0,6.415,2.274,6.588,6.274h1.463c0.934,0,1.396-0.692,1.396-1.626L81.388,51.777z
			 M77.125,52.89H66.489c-0.626,0-1.567-0.584-1.567-1.21v-6.048c0-0.626,0.724-1.134,1.35-1.134
			c10.788,0.765,11.878,7.22,11.878,7.22C78.151,52.344,77.751,52.89,77.125,52.89z"/>
	</g>
</g>
<g id="Layer_3">
</g>
</svg>
