<?xml version="1.0" encoding="utf-8"?>
<!-- Generator: Adobe Illustrator 17.0.0, SVG Export Plug-In . SVG Version: 6.00 Build 0)  -->
<!DOCTYPE svg PUBLIC "-//W3C//DTD SVG 1.1//EN" "http://www.w3.org/Graphics/SVG/1.1/DTD/svg11.dtd">
<svg version="1.1" xmlns="http://www.w3.org/2000/svg" xmlns:xlink="http://www.w3.org/1999/xlink" x="0px" y="0px" width="100px"
	 height="100px" viewBox="0 0 100 100" enable-background="new 0 0 100 100" xml:space="preserve">
<g id="Layer_2">
</g>
<g id="Layer_1">
	<g>
		<g>
			<g>
				<path fill="#E02726" d="M67.127,13.807c-0.005,0.007-0.745-0.334-1.644-0.758l-2.588-1.074c-0.93-0.351-1.684-0.693-1.675-0.76
					s-0.011-0.935-0.043-1.928l-0.2-6.09c-0.033-0.993-0.865-1.919-1.849-2.058l-6.314-0.888c-0.984-0.138-2.056,0.517-2.381,1.456
					l-2.088,6.028c-0.325,0.939-1.403,1.757-2.395,1.818l-2.821,0.3c-0.984,0.141-1.804,0.217-1.822,0.168
					c-0.018-0.048-0.448-0.787-0.955-1.642l-3.109-5.246c-0.507-0.855-1.682-1.266-2.611-0.914l-5.962,2.259
					C27.739,4.83,27.115,5.92,27.282,6.9l1.064,6.261c0.167,0.98-0.383,2.219-1.221,2.753l-2.337,1.633
					c-0.793,0.599-1.472,1.064-1.51,1.033s-0.768-0.471-1.623-0.978l-5.245-3.108c-0.855-0.507-2.083-0.303-2.729,0.453l-4.144,4.85
					c-0.646,0.756-0.672,2.014-0.059,2.796l3.925,5.007c0.613,0.782,0.699,2.052,0.191,2.821c-0.508,0.77-1.985,4.485-2.033,4.476
					c-0.048-0.009-0.899-0.053-1.892-0.096l-5.832-0.254c-0.993-0.043-1.971,0.717-2.173,1.691l-1.296,6.237
					c-0.202,0.973,0.381,2.087,1.296,2.476l5.718,2.429c0.915,0.389,1.667,1.52,1.672,2.514l0.31,4.81
					c0.111,0.988,0.159,1.808,0.107,1.822c-0.052,0.015-0.801,0.429-1.665,0.92l-5.318,3.025c-0.864,0.491-1.295,1.659-0.958,2.594
					l2.159,5.991c0.337,0.935,1.416,1.577,2.399,1.427l6.287-0.961c0.983-0.15,2.229,0.409,2.77,1.243l3.636,4.9
					c0.638,0.762,1.13,1.425,1.094,1.472s-0.433,0.812-0.882,1.699l-2.757,5.444c-0.449,0.887-0.165,2.099,0.632,2.693l5.109,3.813
					c0.797,0.595,2.051,0.535,2.788-0.132l4.751-4.303c0.737-0.667,1.341-1.215,1.344-1.218c0.003-0.003,0.741,0.341,1.64,0.764
					l2.596,1.064c0.931,0.349,1.685,0.689,1.677,0.756s0.011,0.935,0.044,1.928l0.2,6.104c0.033,0.993,0.865,1.919,1.849,2.056
					l6.31,0.882c0.984,0.138,2.056-0.518,2.382-1.457l2.1-6.052c0.326-0.939,0.593-1.722,0.594-1.74s0.813-0.085,1.805-0.149
					l2.764-0.307c0.984-0.142,1.812-0.196,1.841-0.12c0.029,0.076,0.468,0.837,0.974,1.692l3.113,5.25
					c0.507,0.855,1.682,1.266,2.611,0.913l5.958-2.261c0.929-0.353,1.554-1.443,1.388-2.423l-1.07-6.314
					c-0.166-0.98-0.313-1.806-0.327-1.835c-0.014-0.029,0.66-0.493,1.496-1.029l2.254-1.585c0.791-0.601,1.502-1.04,1.579-0.976
					c0.077,0.065,0.84,0.532,1.695,1.038l5.252,3.109c0.855,0.506,2.083,0.302,2.728-0.454l4.137-4.846
					c0.645-0.756,0.668-2.012,0.051-2.791l-3.98-5.025c-0.617-0.779-1.11-1.59-1.096-1.802c0.014-0.212,0.433-1.089,0.931-1.949
					l1.355-3.177c0.373-0.921,0.764-1.657,0.87-1.634s0.992,0.184,1.971,0.358l4.657,0.828c0.979,0.174,1.945-0.48,2.147-1.453
					l1.296-6.236c0.202-0.973-0.377-2.095-1.288-2.493l-5.318-2.326c-0.911-0.398-1.615-0.714-1.566-0.701s0.099-0.79,0.111-1.784
					l-0.264-4.674c-0.093-0.99-0.075-1.823,0.039-1.852c0.115-0.029,0.916-0.454,1.78-0.944l5.331-3.024
					c0.865-0.49,1.297-1.657,0.962-2.593l-2.148-5.992c-0.335-0.936-1.414-1.578-2.396-1.427l-6.322,0.971
					c-0.982,0.151-1.804,0.283-1.826,0.294s-0.481-0.664-1.02-1.499l-3.579-4.864c-0.635-0.764-1.112-1.447-1.058-1.516
					c0.053-0.069,0.464-0.852,0.913-1.739l2.751-5.436c0.449-0.887,0.164-2.099-0.632-2.694l-5.107-3.815
					c-0.796-0.595-2.051-0.536-2.788,0.131l-4.749,4.298C67.739,13.249,67.132,13.8,67.127,13.807z"/>
			</g>
		</g>
		<g>
			<defs>
				<path id="SVGID_59_" d="M81.109,26.065c9.782,25.453-0.727,43.528-15.639,53.31c-14.92,9.782-34.938,5.62-44.713-9.292
					c-3.057-4.66-4.877-9.794-5.482-14.952l-4.423-4.921l1.84-21.57L81.109,26.065z"/>
			</defs>
			<clipPath id="SVGID_2_">
				<use xlink:href="#SVGID_59_"  overflow="visible"/>
			</clipPath>
			<g clip-path="url(#SVGID_2_)">
				<path fill-rule="evenodd" clip-rule="evenodd" fill="#FFFFFF" d="M23.1,48.504c0.478-0.004,0.956-0.024,1.429-0.024
					c4.19-0.008,8.384,0,12.574-0.016c0.26,0,0.683-0.087,0.762-0.257c0.498-1.054,0.92-2.145,1.406-3.317c-1.797,0-3.467,0-5.114,0
					c-0.044-0.107-0.079-0.154-0.079-0.193c-0.008-1.003-0.012-2.006-0.016-3.01c-0.008-1.635-0.845-2.547-2.48-2.563
					c-3.313-0.028-6.623-0.032-9.936,0c-1.643,0.016-2.46,0.908-2.464,2.555c0,1.066,0,2.136,0,3.23c-0.415,0-0.715,0-1.011,0
					c-1.844,0.008-2.713,0.884-2.713,2.725c0,2.286,0,4.569,0,6.856c0,4.988,0,9.976,0,15.173c0.134-0.308,0.217-0.434,0.245-0.569
					c1.212-5.774,2.377-11.563,3.657-17.325C19.861,49.503,20.86,48.528,23.1,48.504z"/>
				<path fill-rule="evenodd" clip-rule="evenodd" fill="#FFFFFF" d="M67.773,50.613c-0.344,0-0.589,0-0.833,0
					c-12.946,0-25.891,0-38.837,0c-0.403,0-0.81-0.008-1.201,0.063c-0.762,0.126-1.26,0.56-1.41,1.351
					c-0.047,0.245-0.131,0.482-0.221,0.711c-2.8,6.911-5.604,13.815-8.408,20.722c-0.146,0.363-0.288,0.726-0.49,1.228
					c0.49,0,0.814,0,1.137,0c12.744,0,25.493-0.008,38.24,0.004c2.543,0.004,2.425-0.32,3.159-2.152
					c2.713-6.808,5.482-13.593,8.234-20.386C67.338,51.672,67.536,51.19,67.773,50.613z"/>
				<path fill-rule="evenodd" clip-rule="evenodd" fill="#FFFFFF" d="M81.789,43.884c-10.825-4.459-21.65-8.917-32.474-13.38
					c-0.245-0.099-0.494-0.178-0.782-0.284c-2.512,6.102-4.996,12.12-7.519,18.253c1.828,0,3.507-0.023,5.181,0.008
					c0.533,0.016,0.798-0.154,0.999-0.656c1.331-3.294,2.693-6.571,4.048-9.857c0.103-0.245,0.217-0.49,0.332-0.742
					c0.588,0.245,1.106,0.466,1.639,0.691c-1.449,3.519-2.863,6.954-4.34,10.556c1.003,0,1.832-0.039,2.65,0.012
					c0.573,0.036,0.845-0.17,1.054-0.691c1.051-2.623,2.137-5.233,3.211-7.847c0.11-0.269,0.237-0.529,0.379-0.841
					c0.585,0.257,1.098,0.482,1.631,0.711c-1.193,2.91-2.35,5.726-3.558,8.657c0.987,0,1.856-0.032,2.725,0.008
					c0.501,0.024,0.75-0.134,0.94-0.616c0.671-1.73,1.394-3.432,2.105-5.142c0.233-0.569,0.486-1.134,0.738-1.718
					c0.577,0.241,1.078,0.45,1.639,0.683c-0.92,2.243-1.825,4.451-2.78,6.785c0.979,0,1.825-0.039,2.666,0.012
					c0.573,0.036,0.837-0.178,1.038-0.703c0.632-1.627,1.319-3.234,2.006-4.893c0.585,0.245,1.106,0.466,1.655,0.695
					c-0.667,1.635-1.303,3.199-1.99,4.889c1.027,0,1.899-0.023,2.769,0.008c0.478,0.02,0.707-0.154,0.877-0.604
					c0.383-1.023,0.833-2.026,1.28-3.092c0.573,0.237,1.094,0.451,1.675,0.687c-2.923,7.211-5.817,14.359-8.732,21.547
					c3.163,1.351,6.275,2.678,9.45,4.028c0.142-0.332,0.253-0.577,0.355-0.821c2.204-5.363,4.411-10.726,6.615-16.093
					c1.122-2.729,2.251-5.458,3.373-8.187C83.179,44.642,83.088,44.421,81.789,43.884z M69.068,64.404
					c-0.601-0.245-1.07-0.434-1.612-0.648c2.35-5.711,4.676-11.362,7.03-17.084c0.561,0.229,1.078,0.446,1.698,0.703
					C73.811,53.057,71.458,58.693,69.068,64.404z"/>
			</g>
		</g>
	</g>
</g>
<g id="Layer_3">
</g>
</svg>
