<?xml version="1.0" encoding="utf-8"?>
<!-- Generator: Adobe Illustrator 17.0.0, SVG Export Plug-In . SVG Version: 6.00 Build 0)  -->
<!DOCTYPE svg PUBLIC "-//W3C//DTD SVG 1.1//EN" "http://www.w3.org/Graphics/SVG/1.1/DTD/svg11.dtd">
<svg version="1.1" xmlns="http://www.w3.org/2000/svg" xmlns:xlink="http://www.w3.org/1999/xlink" x="0px" y="0px" width="100px"
	 height="100px" viewBox="0 0 100 100" enable-background="new 0 0 100 100" xml:space="preserve">
<g id="Layer_2">
</g>
<g id="Layer_1">
	<g>
		<g>
			<g>
				<path fill="#E02726" d="M67.298,13.842c-0.005,0.007-0.747-0.335-1.648-0.76l-2.595-1.077c-0.932-0.352-1.688-0.694-1.679-0.762
					s-0.011-0.937-0.043-1.933l-0.2-6.106c-0.033-0.996-0.867-1.924-1.854-2.063l-6.33-0.89c-0.987-0.139-2.061,0.518-2.387,1.46
					l-2.094,6.044c-0.326,0.942-1.407,1.762-2.401,1.823l-2.828,0.301c-0.986,0.141-1.808,0.217-1.827,0.169
					s-0.449-0.789-0.957-1.647l-3.117-5.259c-0.508-0.857-1.686-1.27-2.618-0.917L28.742,4.49c-0.932,0.353-1.558,1.446-1.391,2.428
					l1.067,6.277c0.167,0.982-0.384,2.224-1.224,2.76l-2.343,1.637c-0.795,0.601-1.476,1.067-1.514,1.036
					c-0.038-0.031-0.77-0.473-1.627-0.981l-5.259-3.116c-0.857-0.508-2.088-0.304-2.736,0.454l-4.154,4.862
					c-0.647,0.758-0.674,2.019-0.059,2.803l3.935,5.02c0.615,0.784,0.701,2.057,0.192,2.829c-0.509,0.772-1.99,4.497-2.038,4.487
					c-0.048-0.009-0.901-0.053-1.897-0.096l-5.847-0.255c-0.996-0.043-1.976,0.719-2.179,1.695l-1.3,6.253
					c-0.203,0.976,0.382,2.093,1.299,2.482L7.4,47.501c0.917,0.39,1.671,1.524,1.676,2.52l0.311,4.822
					c0.111,0.99,0.16,1.812,0.108,1.827s-0.804,0.43-1.67,0.922l-5.331,3.033c-0.866,0.493-1.298,1.663-0.961,2.6l2.164,6.006
					c0.338,0.937,1.42,1.581,2.405,1.431l6.303-0.963c0.985-0.151,2.235,0.41,2.777,1.246l3.645,4.913
					c0.64,0.764,1.133,1.428,1.097,1.476s-0.434,0.814-0.884,1.703l-2.764,5.458c-0.45,0.889-0.165,2.104,0.633,2.7l5.122,3.823
					c0.799,0.596,2.056,0.536,2.795-0.133l4.763-4.314c0.738-0.669,1.345-1.218,1.347-1.221c0.003-0.003,0.743,0.342,1.644,0.766
					l2.603,1.067c0.933,0.349,1.69,0.69,1.681,0.758s0.011,0.937,0.044,1.933l0.201,6.12c0.033,0.996,0.867,1.924,1.854,2.062
					l6.326,0.884c0.987,0.138,2.062-0.519,2.388-1.461l2.105-6.068c0.327-0.941,0.595-1.727,0.596-1.745s0.815-0.085,1.81-0.149
					l2.771-0.308c0.986-0.142,1.817-0.197,1.846-0.121c0.029,0.076,0.469,0.839,0.977,1.696l3.121,5.264
					c0.508,0.857,1.686,1.269,2.618,0.916l5.973-2.266c0.932-0.354,1.558-1.447,1.391-2.429l-1.073-6.33
					c-0.167-0.982-0.314-1.81-0.327-1.84c-0.014-0.029,0.662-0.494,1.5-1.032l2.26-1.589c0.793-0.603,1.506-1.043,1.583-0.978
					c0.077,0.065,0.842,0.534,1.7,1.041l5.266,3.117c0.858,0.508,2.088,0.303,2.735-0.455l4.148-4.859
					c0.647-0.758,0.67-2.017,0.052-2.798l-3.99-5.038c-0.619-0.781-1.113-1.594-1.099-1.806s0.434-1.091,0.934-1.954l1.359-3.185
					c0.374-0.924,0.766-1.661,0.872-1.638s0.995,0.184,1.976,0.359l4.669,0.831c0.981,0.175,1.95-0.481,2.152-1.456l1.299-6.252
					c0.203-0.976-0.378-2.1-1.291-2.5l-5.332-2.332c-0.913-0.399-1.619-0.716-1.57-0.703c0.049,0.013,0.099-0.792,0.111-1.789
					l-0.264-4.686c-0.093-0.992-0.076-1.828,0.039-1.857c0.115-0.029,0.918-0.455,1.785-0.947l5.344-3.031
					c0.867-0.492,1.301-1.661,0.964-2.599l-2.154-6.007c-0.336-0.938-1.417-1.582-2.402-1.43l-6.338,0.973
					c-0.985,0.151-1.809,0.284-1.831,0.294c-0.022,0.011-0.483-0.666-1.023-1.503l-3.588-4.876c-0.637-0.766-1.114-1.45-1.061-1.52
					c0.053-0.07,0.465-0.854,0.915-1.743l2.758-5.45c0.45-0.889,0.165-2.104-0.633-2.701l-5.12-3.825
					c-0.798-0.596-2.056-0.537-2.795,0.131l-4.761,4.309C67.912,13.283,67.303,13.835,67.298,13.842z"/>
			</g>
		</g>
		<g>
			<defs>
				<path id="SVGID_65_" d="M77.666,27.419c8.887,23.133-0.661,39.562-14.215,48.451c-13.558,8.89-31.75,5.106-40.633-8.446
					c-2.778-4.237-4.432-8.905-4.981-13.591l-4.02-4.467l1.672-19.605L77.666,27.419z"/>
			</defs>
			<clipPath id="SVGID_2_">
				<use xlink:href="#SVGID_65_"  overflow="visible"/>
			</clipPath>
			<g clip-path="url(#SVGID_2_)">
				<path fill-rule="evenodd" clip-rule="evenodd" fill="#FFFFFF" d="M47.419,71.445c-7.549,0-15.096-0.008-22.644,0.005
					c-1.278,0.003-2.367-0.332-3.012-1.489c-0.272-0.489-0.476-1.089-0.479-1.639c-0.028-8.519-0.02-17.041-0.02-25.558
					c0.002-1.65,1.238-2.979,2.871-3.098c0.194-0.013,0.388-0.023,0.582-0.023c15.135-0.002,30.267,0.003,45.401-0.01
					c1.362,0,2.435,0.447,3.097,1.671c0.137,0.26,0.229,0.584,0.229,0.877c0.012,8.91,0.01,17.818,0.008,26.727
					c0,1.197-1.242,2.376-2.636,2.512c-0.308,0.028-0.622,0.026-0.932,0.026C62.396,71.445,54.905,71.445,47.419,71.445z
					 M23.129,60.629c0.7,1.236,1.668,1.954,3.169,1.951c14.082-0.022,28.164-0.012,42.244-0.012c0.194,0,0.389,0.005,0.584-0.013
					c1.25-0.128,2.034-0.889,2.619-1.946c-1.413,0.83-2.959,0.703-4.487,0.703c-13.535,0-27.071-0.001-40.608,0.005
					C25.433,61.316,24.245,61.232,23.129,60.629z M52.435,55.828c-3.387,0-6.702,0-10.006,0c0,0.973,0,1.9,0,2.835
					c3.352,0,6.667,0,10.006,0C52.435,57.703,52.435,56.776,52.435,55.828z"/>
				<path fill-rule="evenodd" clip-rule="evenodd" fill="#FFFFFF" d="M56.388,33.766c0,1.515,0,2.972,0,4.474
					c-0.605,0-1.193,0-1.835,0c0-0.774,0-1.543,0-2.364c-4.746,0-9.442,0-14.215,0c0,0.769,0,1.555,0,2.372
					c-0.648,0-1.225,0-1.847,0c0-1.481,0-2.961,0-4.482C44.452,33.766,50.391,33.766,56.388,33.766z"/>
			</g>
		</g>
	</g>
</g>
<g id="Layer_3">
</g>
</svg>
