<?xml version="1.0" encoding="utf-8"?>
<!-- Generator: Adobe Illustrator 17.0.0, SVG Export Plug-In . SVG Version: 6.00 Build 0)  -->
<!DOCTYPE svg PUBLIC "-//W3C//DTD SVG 1.1//EN" "http://www.w3.org/Graphics/SVG/1.1/DTD/svg11.dtd">
<svg version="1.1" xmlns="http://www.w3.org/2000/svg" xmlns:xlink="http://www.w3.org/1999/xlink" x="0px" y="0px" width="100px"
	 height="100px" viewBox="0 0 100 100" enable-background="new 0 0 100 100" xml:space="preserve">
<g id="Layer_2">
</g>
<g id="Layer_1">
	<g>
		<g>
			<g>
				<path fill="#FFFFFF" d="M66.916,13.764c-0.005,0.007-0.743-0.333-1.639-0.756l-2.58-1.07c-0.927-0.35-1.678-0.69-1.67-0.758
					s-0.011-0.932-0.043-1.922l-0.199-6.071c-0.032-0.99-0.862-1.913-1.843-2.051l-6.295-0.885
					c-0.981-0.138-2.049,0.515-2.374,1.451l-2.082,6.01c-0.324,0.936-1.399,1.752-2.388,1.812l-2.812,0.299
					c-0.981,0.14-1.798,0.216-1.816,0.168c-0.018-0.048-0.446-0.785-0.952-1.637l-3.099-5.23c-0.505-0.852-1.677-1.263-2.603-0.911
					l-5.943,2.252c-0.927,0.351-1.549,1.437-1.383,2.414l1.061,6.242c0.166,0.977-0.382,2.212-1.217,2.744l-2.33,1.628
					c-0.79,0.598-1.468,1.061-1.505,1.03c-0.038-0.031-0.766-0.47-1.618-0.975l-5.229-3.098c-0.852-0.505-2.076-0.302-2.72,0.451
					l-4.131,4.834c-0.644,0.753-0.67,2.008-0.059,2.787l3.913,4.991c0.611,0.78,0.697,2.045,0.191,2.813
					c-0.506,0.767-1.979,4.471-2.027,4.462c-0.048-0.009-0.896-0.052-1.886-0.096l-5.814-0.254c-0.99-0.043-1.965,0.715-2.166,1.685
					l-1.292,6.218c-0.202,0.97,0.38,2.081,1.291,2.468l5.7,2.422c0.912,0.387,1.662,1.515,1.667,2.506l0.309,4.794
					c0.111,0.985,0.159,1.802,0.107,1.817s-0.799,0.427-1.66,0.917l-5.301,3.016c-0.861,0.49-1.291,1.653-0.955,2.586l2.152,5.972
					c0.336,0.932,1.412,1.572,2.391,1.423l6.267-0.958c0.979-0.15,2.222,0.408,2.762,1.239l3.624,4.885
					c0.636,0.76,1.127,1.42,1.091,1.467c-0.036,0.047-0.432,0.809-0.879,1.693l-2.749,5.427c-0.448,0.884-0.164,2.092,0.63,2.685
					l5.093,3.801c0.794,0.593,2.044,0.533,2.779-0.132l4.736-4.29c0.734-0.665,1.337-1.211,1.34-1.214
					c0.003-0.003,0.738,0.34,1.635,0.761l2.588,1.061c0.928,0.348,1.68,0.687,1.671,0.753c-0.009,0.067,0.011,0.932,0.043,1.922
					l0.2,6.085c0.033,0.99,0.862,1.913,1.843,2.05l6.29,0.879c0.981,0.137,2.05-0.516,2.375-1.452l2.093-6.033
					c0.325-0.936,0.591-1.717,0.592-1.735c0.001-0.018,0.811-0.085,1.8-0.148l2.755-0.306c0.981-0.142,1.807-0.196,1.836-0.12
					c0.029,0.075,0.466,0.835,0.971,1.687l3.103,5.234c0.505,0.852,1.677,1.262,2.603,0.91l5.939-2.254
					c0.926-0.352,1.549-1.438,1.383-2.415l-1.067-6.294c-0.166-0.977-0.312-1.8-0.326-1.829s0.658-0.491,1.492-1.026l2.247-1.58
					c0.789-0.6,1.497-1.037,1.574-0.972c0.077,0.065,0.837,0.531,1.69,1.035l5.236,3.099c0.853,0.505,2.077,0.301,2.72-0.453
					l4.124-4.831c0.643-0.754,0.666-2.006,0.051-2.782l-3.967-5.009c-0.615-0.777-1.107-1.585-1.093-1.796
					c0.014-0.211,0.432-1.085,0.928-1.943l1.351-3.167c0.372-0.918,0.762-1.651,0.867-1.629c0.105,0.023,0.989,0.183,1.965,0.357
					l4.642,0.826c0.975,0.174,1.939-0.478,2.14-1.448l1.292-6.217c0.202-0.97-0.376-2.089-1.284-2.486l-5.302-2.318
					c-0.908-0.397-1.61-0.712-1.561-0.699c0.049,0.012,0.099-0.788,0.11-1.779l-0.263-4.659c-0.093-0.986-0.075-1.817,0.039-1.846
					c0.114-0.029,0.913-0.453,1.775-0.941l5.314-3.014c0.862-0.489,1.293-1.652,0.959-2.585l-2.142-5.973
					c-0.334-0.933-1.409-1.573-2.389-1.422l-6.302,0.968c-0.979,0.15-1.799,0.282-1.821,0.293c-0.022,0.011-0.48-0.662-1.017-1.494
					l-3.567-4.848c-0.633-0.762-1.108-1.442-1.055-1.511c0.053-0.069,0.463-0.849,0.91-1.733l2.742-5.419
					c0.447-0.884,0.164-2.093-0.63-2.686l-5.091-3.803c-0.794-0.593-2.044-0.534-2.779,0.131l-4.734,4.284
					C67.527,13.207,66.922,13.757,66.916,13.764z"/>
			</g>
		</g>
		<g>
			<defs>
				<path id="SVGID_61_" d="M76.447,35.961c9.445,14.406,3.428,32.487-10.974,41.931c-14.408,9.451-33.743,5.432-43.184-8.974
					c-9.448-14.405-6.671-33.504,7.734-42.949l4.445-12.666c0,0,37.54,1.889,42.873,14.44"/>
			</defs>
			<clipPath id="SVGID_2_">
				<use xlink:href="#SVGID_61_"  overflow="visible"/>
			</clipPath>
			<g clip-path="url(#SVGID_2_)">
				<path fill="#E02726" d="M56.713,20.01c4.945,1.285,7.314,10.399,5.269,18.269c-1.584,6.103-2.267,8.968-6.23,11.229
					c-1.256,0.715-2.592,1.425-3.768,1.927c-0.563,0.442-1.186,1.119-1.482,2.092l-2.773,9.432l-9.162,43.731
					c-0.003,0.013,0,0.025-0.003,0.035c-0.131,0.502-1.746,0.518-3.606,0.035c-1.863-0.483-3.266-1.285-3.135-1.787
					c0.003-0.007,0.01-0.013,0.013-0.025l12.853-42.936l2.509-9.349c0,0,0.356-0.966-0.286-2.544
					c-0.719-0.871-1.87-1.905-2.375-3.193c-1.122-2.849-1.943-7.578-0.461-13.292C46.12,25.759,51.767,18.725,56.713,20.01z"/>
				<path fill="#E02726" d="M76.266,27.973c0,0-0.372-1.577-3.431-0.89c0,0-3.225,0.623-8.643,13.26c0,0-3.008,7.804-5.896,21.541
					c0,0-0.232,0.89,0.363,1.351c0,0,1.618,0.827,1.323,3.533c0,0-0.029,0.038-0.073,0.105c-0.41,0.305-0.731,0.766-0.878,1.326
					c-0.108,0.416-0.102,0.833-0.006,1.215c0.019,0.213,0.073,0.42,0.178,0.611L48.46,109.297c-0.003,0.007-0.009,0.016-0.013,0.025
					c-0.124,0.484,1.231,1.256,3.031,1.724c1.781,0.461,3.323,0.452,3.476-0.019l0,0c0.003-0.007,0.006-0.007,0.009-0.013v-0.022
					l8.901-39.689c0.569-0.28,1.034-0.827,1.218-1.536c0.146-0.566,0.086-1.132-0.13-1.606c-0.013-0.07-0.025-0.14-0.041-0.21
					c0,0,0.346-0.998,1.952-2.366l8.968-33.431C75.831,32.154,76.851,29.461,76.266,27.973z"/>
				<path fill="#E02726" d="M39.795,19.895l-4.513,16.848c-0.003,0-0.003,0-0.006,0.003c-0.089,0.328-0.426,0.525-0.757,0.442
					c-0.312-0.083-0.506-0.388-0.458-0.706c0-0.007-0.003-0.013-0.003-0.013l4.089-17c0.423-1.355-0.27-1.832-0.27-1.832
					c-0.868,0.076-1.211,1.491-1.211,1.491l-5.04,16.755c-0.007,0.013-0.013,0.019-0.019,0.025v0.007
					c-0.044,0.168-0.172,0.286-0.324,0.343c-0.083,0.045-0.159,0.045-0.226,0.019c-0.016,0-0.035,0.003-0.051,0
					c-0.261-0.07-0.42-0.344-0.35-0.611c0.003-0.013,0.016-0.025,0.019-0.038l4.846-16.892c0.238-3.196-1.441-0.455-1.441-0.455
					l-2.897,7.778l-4.462,12.341c-0.232,0.636-0.534,1.444-0.652,2.233c-0.073,0.502-0.073,0.998,0.064,1.444
					c0.235,0.744,0.814,1.138,1.262,1.717c0.003,0.003,1.215,1.564,1.215,1.564c1.104,1.438,0.56,2.64,0.56,2.64l-15.356,52.282
					c-0.003,0.009-0.01,0.016-0.01,0.022c-0.13,0.499,1.262,1.291,3.11,1.768c1.844,0.483,3.447,0.464,3.574-0.032
					c0.006-0.016,0.003-0.032,0.006-0.048l12.497-53.045c0.76-1.806,2.573-2.207,2.573-2.207l1.148-0.388
					c1.968-0.458,2.509-2.079,2.509-2.079c0.197-0.751,0.458-1.533,0.658-2.296c0.366-1.374,0.604-2.767,0.878-4.16
					c0.334-1.698,0.655-3.396,0.973-5.094c0.344-1.832,0.703-3.66,1.056-5.489c0.286-1.469,0.566-2.941,0.852-4.411
					c0.114-0.595,0.229-1.192,0.343-1.79c-0.159-3.46-1.584-0.324-1.584-0.324l-4.023,16.93c-0.003,0-0.006,0-0.009,0.006
					c-0.102,0.293-0.41,0.464-0.715,0.382c-0.321-0.083-0.512-0.407-0.43-0.731c0,0,0.007-0.013,0.007-0.019
					c0-0.016,0-0.029,0-0.029l4.058-16.873C41.465,16.175,39.795,19.895,39.795,19.895z"/>
			</g>
		</g>
	</g>
</g>
<g id="Layer_3">
</g>
</svg>
