<?xml version="1.0" encoding="utf-8"?>
<!-- Generator: Adobe Illustrator 17.0.0, SVG Export Plug-In . SVG Version: 6.00 Build 0)  -->
<!DOCTYPE svg PUBLIC "-//W3C//DTD SVG 1.1//EN" "http://www.w3.org/Graphics/SVG/1.1/DTD/svg11.dtd">
<svg version="1.1" xmlns="http://www.w3.org/2000/svg" xmlns:xlink="http://www.w3.org/1999/xlink" x="0px" y="0px" width="100px"
	 height="100px" viewBox="0 0 100 100" enable-background="new 0 0 100 100" xml:space="preserve">
<g id="Layer_2">
</g>
<g id="Layer_1">
	<g>
		<g>
			<g>
				<path fill="#FFFFFF" d="M66.916,13.764c-0.005,0.007-0.743-0.333-1.639-0.756l-2.58-1.07c-0.927-0.35-1.678-0.69-1.67-0.758
					c0.009-0.067-0.011-0.932-0.043-1.922l-0.199-6.071c-0.032-0.99-0.862-1.913-1.843-2.051l-6.295-0.885
					c-0.981-0.138-2.049,0.515-2.374,1.451l-2.082,6.01c-0.324,0.936-1.399,1.752-2.388,1.812l-2.812,0.299
					c-0.981,0.14-1.798,0.216-1.816,0.168c-0.018-0.048-0.446-0.785-0.952-1.637l-3.099-5.23c-0.505-0.852-1.677-1.263-2.603-0.911
					l-5.943,2.252c-0.927,0.351-1.549,1.437-1.383,2.414l1.061,6.242c0.166,0.977-0.382,2.212-1.217,2.744l-2.33,1.628
					c-0.79,0.598-1.468,1.061-1.505,1.03c-0.038-0.031-0.766-0.47-1.618-0.975l-5.229-3.098c-0.852-0.505-2.076-0.302-2.72,0.451
					l-4.131,4.834c-0.644,0.753-0.67,2.008-0.059,2.787l3.913,4.991c0.611,0.78,0.697,2.045,0.191,2.813
					c-0.506,0.767-1.979,4.471-2.027,4.462c-0.048-0.009-0.896-0.052-1.886-0.096l-5.814-0.254c-0.99-0.043-1.965,0.715-2.166,1.685
					l-1.292,6.218c-0.202,0.97,0.38,2.081,1.291,2.468l5.7,2.422c0.912,0.387,1.662,1.515,1.667,2.506l0.309,4.794
					c0.111,0.985,0.159,1.802,0.107,1.817c-0.052,0.014-0.799,0.427-1.66,0.917l-5.301,3.016c-0.861,0.49-1.291,1.653-0.955,2.586
					l2.152,5.972c0.336,0.932,1.412,1.572,2.391,1.423l6.267-0.958c0.979-0.15,2.222,0.408,2.762,1.239l3.624,4.885
					c0.636,0.76,1.127,1.42,1.091,1.467c-0.036,0.047-0.432,0.809-0.879,1.693l-2.749,5.427c-0.448,0.884-0.164,2.092,0.63,2.685
					l5.093,3.801c0.794,0.593,2.044,0.533,2.779-0.132l4.736-4.29c0.734-0.665,1.337-1.212,1.34-1.214s0.738,0.34,1.635,0.761
					l2.588,1.061c0.928,0.348,1.68,0.687,1.671,0.753c-0.009,0.067,0.011,0.932,0.043,1.922l0.2,6.085
					c0.033,0.99,0.862,1.913,1.843,2.05l6.29,0.879c0.981,0.137,2.05-0.516,2.375-1.452l2.093-6.033
					c0.325-0.936,0.591-1.717,0.592-1.735c0.001-0.018,0.811-0.085,1.8-0.148l2.755-0.306c0.981-0.142,1.807-0.196,1.836-0.12
					c0.029,0.075,0.466,0.835,0.971,1.687l3.103,5.234c0.505,0.852,1.677,1.262,2.603,0.91l5.939-2.254
					c0.926-0.352,1.549-1.438,1.383-2.415l-1.067-6.294c-0.166-0.977-0.312-1.8-0.326-1.829c-0.013-0.029,0.658-0.491,1.492-1.026
					l2.247-1.58c0.789-0.6,1.497-1.037,1.574-0.972c0.077,0.065,0.837,0.531,1.69,1.035l5.236,3.099
					c0.853,0.505,2.077,0.301,2.72-0.453l4.124-4.831c0.643-0.754,0.666-2.006,0.051-2.782l-3.967-5.009
					c-0.615-0.777-1.107-1.585-1.093-1.796c0.014-0.211,0.432-1.085,0.928-1.943l1.351-3.167c0.372-0.918,0.762-1.651,0.867-1.629
					c0.105,0.023,0.989,0.183,1.965,0.357l4.642,0.826c0.975,0.174,1.939-0.478,2.14-1.448l1.292-6.217
					c0.202-0.97-0.376-2.089-1.284-2.486l-5.302-2.318c-0.908-0.397-1.61-0.712-1.561-0.699c0.049,0.012,0.099-0.788,0.11-1.779
					l-0.263-4.659c-0.093-0.986-0.075-1.817,0.039-1.846c0.114-0.029,0.913-0.453,1.775-0.941l5.314-3.014
					c0.862-0.489,1.293-1.652,0.959-2.585l-2.142-5.973c-0.334-0.933-1.409-1.573-2.389-1.422l-6.302,0.968
					c-0.979,0.15-1.799,0.282-1.821,0.293s-0.48-0.662-1.017-1.494l-3.567-4.848c-0.633-0.762-1.108-1.442-1.055-1.511
					c0.053-0.069,0.463-0.849,0.91-1.733l2.742-5.419c0.447-0.884,0.164-2.093-0.63-2.686l-5.091-3.803
					c-0.794-0.593-2.044-0.534-2.779,0.131l-4.734,4.284C67.527,13.207,66.922,13.757,66.916,13.764z"/>
			</g>
		</g>
		<g>
			<path fill-rule="evenodd" clip-rule="evenodd" fill="#E02726" d="M39.854,58.357c0.334,2.336,0.654,4.541,0.978,6.813
				c7.837,0,15.631,0,23.542,0c-0.128,1.085-0.228,2.102-0.395,3.104c-0.021,0.131-0.363,0.291-0.565,0.302
				c-0.651,0.039-1.301,0.017-2.08,0.017c0.75,1.273,1.102,2.546,0.569,3.822c-0.331,0.782-0.857,1.575-1.504,2.102
				c-1.49,1.202-3.648,1.12-5.113-0.011c-1.7-1.302-1.977-2.948-0.971-5.87c-2.166,0-4.313,0-6.475,0
				c1.024,2.947,0.708,4.704-1.042,5.923c-1.6,1.117-3.733,1.067-5.191-0.114c-1.7-1.387-1.991-3.222-0.857-5.81
				c-0.946,0-1.853,0-2.859,0c-1.795-12.502-3.577-24.925-5.376-37.427c-2.525,0-5.028,0-7.574,0c0-1.159,0-2.226,0-3.367
				c3.474,0,6.955,0,10.521,0c0.253,1.707,0.53,3.438,0.757,5.173c0.199,1.557,0.178,1.557,1.764,1.557c9.75,0,19.492,0,29.238,0
				c0.324,0,0.647,0,1.074,0c-0.946,7.957-1.885,15.83-2.827,23.784C56.942,58.357,48.445,58.357,39.854,58.357z M44.576,38.015
				c0.085,1.145,0.167,2.219,0.252,3.317c1.447,0,2.813,0,4.217,0c0-1.127,0-2.212,0-3.317
				C47.549,38.015,46.105,38.015,44.576,38.015z M56.886,38.036c-1.465,0-2.88,0-4.302,0c0,1.116,0,2.19,0,3.285
				c1.362,0,2.681,0,4.05,0C56.719,40.202,56.8,39.135,56.886,38.036z M41.156,38.033c-1.419,0-2.788,0-4.213,0
				c0.149,1.021,0.274,1.991,0.437,2.955c0.025,0.142,0.238,0.363,0.363,0.366c1.195,0.025,2.39,0.014,3.655,0.014
				C41.312,40.184,41.238,39.117,41.156,38.033z M60.072,41.372c1.273,0,2.443,0.021,3.613-0.028c0.157,0,0.402-0.327,0.434-0.537
				c0.142-0.91,0.22-1.827,0.327-2.766c-1.397,0-2.752,0-4.146,0C60.228,39.16,60.15,40.22,60.072,41.372z M49.056,44.835
				c-1.365,0-2.659,0-3.989,0c0.082,1.123,0.16,2.194,0.242,3.293c1.28,0,2.493,0,3.748,0
				C49.056,47.014,49.056,45.944,49.056,44.835z M63.25,48.134c0.131-1.134,0.256-2.197,0.384-3.299c-1.322,0-2.567,0-3.833,0
				c-0.085,1.116-0.163,2.183-0.242,3.299C60.815,48.134,61.988,48.134,63.25,48.134z M52.576,48.173
				c1.088,0,2.098,0.018,3.101-0.014c0.167-0.007,0.455-0.196,0.466-0.323c0.103-0.992,0.146-1.988,0.213-3.012
				c-1.312,0-2.532,0-3.78,0C52.576,45.937,52.576,47.004,52.576,48.173z M37.913,44.824c0.146,0.985,0.27,1.927,0.437,2.863
				c0.028,0.17,0.21,0.455,0.327,0.458c1.038,0.036,2.08,0.021,3.193,0.021c-0.082-1.184-0.157-2.251-0.231-3.342
				C40.37,44.824,39.161,44.824,37.913,44.824z M62.827,51.622c-1.181,0-2.329,0-3.542,0c-0.082,1.109-0.157,2.19-0.242,3.349
				c1.067,0,2.041,0.018,3.011-0.017c0.153-0.007,0.402-0.235,0.427-0.388C62.625,53.603,62.713,52.636,62.827,51.622z
				 M49.035,54.929c0-1.141,0-2.229,0-3.296c-1.184,0-2.297,0-3.485,0c0.078,1.124,0.153,2.19,0.235,3.296
				C46.887,54.929,47.929,54.929,49.035,54.929z M55.869,51.633c-1.156,0-2.218,0-3.289,0c0,1.124,0,2.198,0,3.339
				c0.918,0,1.792,0.025,2.663-0.025c0.146-0.007,0.377-0.299,0.398-0.484C55.748,53.543,55.798,52.615,55.869,51.633z
				 M38.901,51.612c0.142,1.038,0.263,2.012,0.419,2.972c0.028,0.142,0.235,0.363,0.366,0.366c0.868,0.035,1.735,0.021,2.67,0.021
				c-0.089-1.198-0.171-2.279-0.249-3.36C41.013,51.612,40.018,51.612,38.901,51.612z"/>
		</g>
	</g>
</g>
<g id="Layer_3">
</g>
</svg>
