<?xml version="1.0" encoding="utf-8"?>
<!-- Generator: Adobe Illustrator 17.0.0, SVG Export Plug-In . SVG Version: 6.00 Build 0)  -->
<!DOCTYPE svg PUBLIC "-//W3C//DTD SVG 1.1//EN" "http://www.w3.org/Graphics/SVG/1.1/DTD/svg11.dtd">
<svg version="1.1" xmlns="http://www.w3.org/2000/svg" xmlns:xlink="http://www.w3.org/1999/xlink" x="0px" y="0px" width="100px"
	 height="100px" viewBox="0 0 100 100" enable-background="new 0 0 100 100" xml:space="preserve">
<g id="Layer_2">
</g>
<g id="Layer_1">
	<g>
		<g>
			<g>
				<path fill="#FFFFFF" d="M66.916,13.764c-0.005,0.007-0.743-0.333-1.639-0.756l-2.58-1.07c-0.927-0.35-1.678-0.69-1.67-0.758
					c0.009-0.067-0.011-0.932-0.043-1.922l-0.199-6.071c-0.032-0.99-0.862-1.913-1.843-2.051l-6.295-0.885
					c-0.981-0.138-2.049,0.515-2.374,1.451l-2.082,6.01c-0.324,0.936-1.399,1.752-2.388,1.812l-2.812,0.299
					c-0.981,0.14-1.798,0.216-1.816,0.168c-0.018-0.048-0.446-0.785-0.952-1.637l-3.099-5.23c-0.505-0.852-1.677-1.263-2.603-0.911
					l-5.943,2.252c-0.927,0.351-1.549,1.437-1.383,2.414l1.061,6.242c0.166,0.977-0.382,2.212-1.217,2.744l-2.33,1.628
					c-0.79,0.598-1.468,1.061-1.505,1.03c-0.038-0.031-0.766-0.47-1.618-0.975l-5.229-3.098c-0.852-0.505-2.076-0.302-2.72,0.451
					l-4.131,4.834c-0.644,0.753-0.67,2.008-0.059,2.787l3.913,4.991c0.611,0.78,0.697,2.045,0.191,2.813
					c-0.506,0.767-1.979,4.471-2.027,4.462c-0.048-0.009-0.896-0.052-1.886-0.096l-5.814-0.253c-0.99-0.043-1.965,0.715-2.166,1.685
					l-1.292,6.218c-0.202,0.97,0.38,2.081,1.291,2.468l5.7,2.422c0.912,0.387,1.662,1.515,1.667,2.506l0.309,4.794
					c0.111,0.985,0.159,1.802,0.107,1.817s-0.799,0.427-1.66,0.917l-5.301,3.016c-0.861,0.49-1.291,1.653-0.955,2.586l2.152,5.972
					c0.336,0.932,1.412,1.572,2.391,1.423l6.267-0.958c0.979-0.15,2.222,0.408,2.762,1.239l3.624,4.885
					c0.636,0.76,1.127,1.42,1.091,1.467c-0.036,0.047-0.432,0.809-0.879,1.693l-2.749,5.427c-0.448,0.884-0.164,2.092,0.63,2.685
					l5.093,3.801c0.794,0.593,2.044,0.533,2.779-0.132l4.736-4.29c0.734-0.665,1.337-1.211,1.34-1.214
					c0.003-0.003,0.738,0.34,1.635,0.761l2.588,1.061c0.928,0.348,1.68,0.687,1.671,0.753c-0.009,0.067,0.011,0.932,0.043,1.922
					l0.2,6.085c0.033,0.99,0.862,1.913,1.843,2.05l6.29,0.879c0.981,0.137,2.05-0.516,2.375-1.452l2.093-6.033
					c0.325-0.936,0.591-1.717,0.592-1.735c0.001-0.018,0.811-0.085,1.8-0.148l2.755-0.306c0.981-0.142,1.807-0.196,1.836-0.12
					c0.029,0.075,0.466,0.835,0.971,1.687l3.103,5.234c0.505,0.852,1.677,1.262,2.603,0.91l5.939-2.254
					c0.926-0.352,1.549-1.438,1.383-2.415l-1.067-6.294c-0.166-0.977-0.312-1.8-0.326-1.829c-0.013-0.029,0.658-0.491,1.492-1.026
					l2.247-1.58c0.789-0.6,1.497-1.037,1.574-0.972c0.077,0.065,0.837,0.531,1.69,1.035l5.236,3.099
					c0.853,0.505,2.077,0.301,2.72-0.453l4.124-4.831c0.643-0.754,0.666-2.006,0.051-2.782l-3.967-5.009
					c-0.615-0.777-1.107-1.585-1.093-1.796c0.014-0.211,0.432-1.085,0.928-1.943l1.351-3.167c0.372-0.918,0.762-1.651,0.867-1.629
					c0.105,0.023,0.989,0.183,1.965,0.357l4.642,0.826c0.975,0.174,1.939-0.478,2.14-1.448l1.292-6.217
					c0.202-0.97-0.376-2.089-1.284-2.486l-5.302-2.318c-0.908-0.397-1.61-0.712-1.561-0.699c0.049,0.012,0.099-0.788,0.11-1.779
					l-0.263-4.659c-0.093-0.986-0.075-1.817,0.039-1.846c0.114-0.029,0.913-0.453,1.775-0.941l5.314-3.014
					c0.862-0.489,1.293-1.652,0.959-2.585l-2.142-5.973c-0.334-0.933-1.409-1.573-2.389-1.422l-6.302,0.968
					c-0.979,0.15-1.799,0.282-1.821,0.293s-0.48-0.662-1.017-1.494l-3.567-4.848c-0.633-0.762-1.108-1.442-1.055-1.511
					c0.053-0.069,0.463-0.849,0.91-1.733l2.742-5.419c0.447-0.884,0.164-2.093-0.63-2.686l-5.091-3.803
					c-0.794-0.593-2.044-0.534-2.779,0.131l-4.734,4.284C67.527,13.207,66.922,13.757,66.916,13.764z"/>
			</g>
		</g>
		<g>
			<defs>
				<path id="SVGID_65_" d="M78.301,24.655c8.808,22.926-0.655,44.596-14.087,53.407c-13.438,8.811-31.466,5.062-40.271-8.37
					c-2.754-4.196-4.395-8.824-4.936-13.47l-3.985-4.426l1.656-27.141H78.301z"/>
			</defs>
			<clipPath id="SVGID_2_">
				<use xlink:href="#SVGID_65_"  overflow="visible"/>
			</clipPath>
			<path clip-path="url(#SVGID_2_)" fill-rule="evenodd" clip-rule="evenodd" fill="#CD2322" d="M24.957,56.257
				c-3.375,0.513-6.148-1.684-6.211-4.876c-0.01-0.545,0.327-1.092,0.494-1.643c1.945-6.425,3.885-12.85,5.827-19.277
				c0.202-0.661,0.428-1.316,0.598-1.987c0.139-0.538,0.485-0.755,0.998-0.78c0.18-0.01,0.359-0.003,0.542-0.003
				c14.011,0,28.022,0,42.037,0c1.262,0,1.313,0.041,1.671,1.218c2.144,7.007,4.278,14.017,6.438,21.018
				c0.818,2.654-0.608,5.487-3.311,6.29c-0.759,0.223-1.606,0.142-2.547,0.208c0,0.145,0,0.438,0,0.73c0,7.328,0,14.657,0,21.982
				c0,1.643-0.507,2.163-2.169,2.166c-6.812,0.006-13.627,0.003-20.439,0.003c-7.224,0-14.452,0.009-21.676-0.022
				c-0.598-0.003-1.322-0.167-1.754-0.532c-0.349-0.293-0.475-1.007-0.475-1.536c-0.031-7.329-0.022-14.653-0.022-21.982
				C24.957,56.927,24.957,56.625,24.957,56.257z M28.231,70.227c13.391,0,26.685,0,39.985,0c0-5.226,0-10.376,0-15.57
				c-2.726,2.745-5.622,2.131-7.681-0.589c-2.688,3.378-5.924,2.943-8.219-0.06c-1.045,1.332-2.241,2.402-4.07,2.411
				c-1.851,0.009-3.056-1.089-4.124-2.433c-1.07,1.382-2.279,2.44-4.114,2.433c-1.829-0.01-3.009-1.102-4.058-2.437
				c-0.982,1.244-2.04,2.282-3.711,2.421c-1.64,0.135-2.883-0.601-4.007-1.842C28.231,59.88,28.231,65.036,28.231,70.227z
				 M58.384,29.009c0.979,7.385,1.945,14.641,2.909,21.894c2.219,0,4.356,0,6.563,0c-0.129-0.645-0.239-1.218-0.365-1.791
				c-1.435-6.497-2.871-12.998-4.328-19.492c-0.054-0.23-0.334-0.576-0.52-0.585C61.262,28.986,59.88,29.009,58.384,29.009z
				 M28.615,50.915c2.213,0,4.331,0,6.504,0c0.988-7.297,1.971-14.553,2.968-21.909c-1.404,0-2.682,0.032-3.96-0.016
				c-0.592-0.019-0.778,0.205-0.894,0.759c-0.67,3.183-1.385,6.359-2.081,9.535C30.308,43.136,29.471,46.989,28.615,50.915z
				 M45.903,29.04c-0.324,7.347-0.642,14.6-0.96,21.862c2.188,0,4.253,0,6.352,0c-0.312-7.319-0.617-14.578-0.925-21.862
				C48.853,29.04,47.423,29.04,45.903,29.04z"/>
		</g>
	</g>
</g>
<g id="Layer_3">
</g>
</svg>
