<?xml version="1.0" encoding="utf-8"?>
<!-- Generator: Adobe Illustrator 17.0.0, SVG Export Plug-In . SVG Version: 6.00 Build 0)  -->
<!DOCTYPE svg PUBLIC "-//W3C//DTD SVG 1.1//EN" "http://www.w3.org/Graphics/SVG/1.1/DTD/svg11.dtd">
<svg version="1.1" xmlns="http://www.w3.org/2000/svg" xmlns:xlink="http://www.w3.org/1999/xlink" x="0px" y="0px" width="100px"
	 height="100px" viewBox="0 0 100 100" enable-background="new 0 0 100 100" xml:space="preserve">
<g id="Layer_2">
</g>
<g id="Layer_1">
	<g>
		<g>
			<g>
				<path fill="#E02726" d="M67.298,13.842c-0.005,0.007-0.747-0.335-1.648-0.76l-2.595-1.077c-0.932-0.352-1.688-0.694-1.679-0.762
					s-0.011-0.937-0.043-1.933l-0.2-6.106c-0.033-0.996-0.867-1.924-1.854-2.063l-6.33-0.89c-0.987-0.139-2.061,0.518-2.387,1.46
					l-2.094,6.044c-0.326,0.942-1.407,1.762-2.401,1.823l-2.828,0.301c-0.986,0.141-1.808,0.217-1.827,0.169
					s-0.449-0.789-0.957-1.647l-3.117-5.259c-0.508-0.857-1.686-1.27-2.618-0.917L28.742,4.49c-0.932,0.353-1.558,1.446-1.391,2.428
					l1.067,6.277c0.167,0.982-0.384,2.224-1.224,2.76l-2.343,1.637c-0.795,0.601-1.476,1.067-1.514,1.036s-0.77-0.473-1.627-0.981
					l-5.259-3.116c-0.857-0.508-2.088-0.304-2.736,0.454l-4.154,4.862c-0.647,0.758-0.674,2.019-0.059,2.803l3.935,5.02
					c0.615,0.784,0.701,2.057,0.192,2.829c-0.509,0.772-1.99,4.497-2.038,4.487c-0.048-0.009-0.901-0.053-1.897-0.096l-5.847-0.255
					c-0.996-0.043-1.976,0.719-2.179,1.695l-1.3,6.253c-0.203,0.976,0.382,2.093,1.299,2.482L7.4,47.501
					c0.917,0.39,1.671,1.524,1.676,2.52l0.311,4.822c0.111,0.99,0.16,1.812,0.108,1.827c-0.052,0.015-0.804,0.43-1.67,0.922
					l-5.331,3.033c-0.866,0.493-1.298,1.663-0.961,2.6l2.164,6.006c0.338,0.937,1.42,1.581,2.405,1.431l6.303-0.963
					c0.985-0.151,2.235,0.41,2.777,1.246l3.645,4.913c0.64,0.764,1.133,1.428,1.097,1.476c-0.036,0.048-0.434,0.814-0.884,1.703
					l-2.764,5.458c-0.45,0.889-0.165,2.104,0.633,2.7l5.122,3.823c0.799,0.596,2.056,0.536,2.795-0.133l4.763-4.314
					c0.738-0.669,1.345-1.218,1.347-1.221c0.003-0.003,0.743,0.342,1.644,0.766l2.603,1.067c0.933,0.349,1.69,0.69,1.681,0.758
					s0.011,0.937,0.044,1.933l0.201,6.12c0.033,0.996,0.867,1.924,1.854,2.062l6.326,0.884c0.987,0.138,2.062-0.519,2.388-1.461
					l2.105-6.068c0.327-0.941,0.595-1.727,0.596-1.745s0.815-0.085,1.81-0.149l2.771-0.308c0.986-0.142,1.817-0.197,1.846-0.121
					c0.029,0.076,0.469,0.839,0.977,1.696l3.121,5.264c0.508,0.857,1.686,1.269,2.618,0.916l5.973-2.266
					c0.932-0.354,1.558-1.447,1.391-2.429l-1.073-6.33c-0.167-0.982-0.314-1.81-0.327-1.84s0.661-0.494,1.5-1.032l2.26-1.589
					c0.793-0.603,1.506-1.043,1.583-0.978c0.077,0.065,0.842,0.534,1.7,1.041l5.266,3.117c0.858,0.508,2.088,0.303,2.735-0.455
					l4.148-4.859c0.647-0.758,0.67-2.017,0.052-2.798l-3.99-5.038c-0.619-0.781-1.113-1.594-1.099-1.806
					c0.014-0.212,0.434-1.091,0.934-1.954l1.359-3.185c0.374-0.924,0.766-1.661,0.872-1.638c0.106,0.023,0.995,0.184,1.976,0.359
					l4.669,0.831c0.981,0.175,1.95-0.481,2.152-1.456l1.299-6.252c0.203-0.976-0.378-2.1-1.291-2.5l-5.332-2.332
					c-0.913-0.399-1.619-0.716-1.57-0.703c0.049,0.013,0.099-0.792,0.111-1.789l-0.264-4.686c-0.093-0.992-0.076-1.828,0.039-1.857
					c0.115-0.029,0.918-0.455,1.785-0.947l5.344-3.031c0.867-0.492,1.301-1.661,0.964-2.599l-2.154-6.007
					c-0.336-0.938-1.417-1.582-2.402-1.43l-6.338,0.973c-0.985,0.151-1.809,0.284-1.831,0.294c-0.022,0.011-0.483-0.666-1.023-1.503
					l-3.588-4.876c-0.637-0.766-1.114-1.45-1.061-1.52s0.465-0.854,0.915-1.743l2.758-5.45c0.45-0.889,0.165-2.104-0.633-2.701
					l-5.12-3.825c-0.798-0.596-2.056-0.537-2.795,0.131l-4.761,4.309C67.912,13.283,67.303,13.835,67.298,13.842z"/>
			</g>
		</g>
		<g>
			<path fill-rule="evenodd" clip-rule="evenodd" fill="#FFFFFF" d="M40.082,58.689c0.336,2.349,0.658,4.567,0.983,6.851
				c7.881,0,15.72,0,23.676,0c-0.129,1.091-0.229,2.114-0.397,3.122c-0.022,0.132-0.365,0.293-0.569,0.304
				c-0.654,0.039-1.309,0.018-2.092,0.018c0.755,1.281,1.108,2.561,0.572,3.844c-0.333,0.787-0.862,1.584-1.513,2.114
				c-1.498,1.209-3.669,1.126-5.142-0.011c-1.709-1.309-1.988-2.965-0.976-5.904c-2.178,0-4.338,0-6.512,0
				c1.03,2.964,0.712,4.731-1.048,5.957c-1.609,1.123-3.755,1.073-5.221-0.114c-1.709-1.395-2.002-3.24-0.862-5.843
				c-0.951,0-1.863,0-2.875,0c-1.806-12.573-3.597-25.067-5.407-37.64c-2.539,0-5.056,0-7.617,0c0-1.166,0-2.239,0-3.386
				c3.494,0,6.994,0,10.581,0c0.254,1.716,0.533,3.458,0.762,5.203c0.2,1.566,0.179,1.566,1.774,1.566c9.805,0,19.603,0,29.405,0
				c0.326,0,0.651,0,1.08,0c-0.951,8.003-1.895,15.92-2.843,23.919C57.267,58.689,48.721,58.689,40.082,58.689z M44.83,38.232
				c0.086,1.152,0.168,2.231,0.254,3.336c1.456,0,2.829,0,4.241,0c0-1.133,0-2.224,0-3.336C47.82,38.232,46.368,38.232,44.83,38.232
				z M57.21,38.253c-1.473,0-2.896,0-4.327,0c0,1.123,0,2.203,0,3.304c1.369,0,2.696,0,4.073,0
				C57.042,40.431,57.124,39.358,57.21,38.253z M41.39,38.25c-1.427,0-2.803,0-4.237,0c0.15,1.026,0.275,2.003,0.44,2.971
				c0.025,0.143,0.239,0.365,0.365,0.368c1.201,0.025,2.403,0.014,3.676,0.014C41.548,40.413,41.473,39.34,41.39,38.25z
				 M60.414,41.608c1.28,0,2.457,0.021,3.633-0.029c0.157,0,0.404-0.329,0.436-0.54c0.143-0.915,0.222-1.838,0.329-2.782
				c-1.405,0-2.768,0-4.17,0C60.571,39.383,60.493,40.449,60.414,41.608z M49.336,45.091c-1.373,0-2.675,0-4.012,0
				c0.082,1.13,0.161,2.206,0.243,3.311c1.287,0,2.507,0,3.769,0C49.336,47.282,49.336,46.206,49.336,45.091z M63.611,48.409
				c0.132-1.141,0.257-2.21,0.386-3.318c-1.33,0-2.582,0-3.855,0c-0.086,1.123-0.164,2.196-0.243,3.318
				C61.161,48.409,62.342,48.409,63.611,48.409z M52.876,48.448c1.094,0,2.11,0.018,3.118-0.014
				c0.168-0.007,0.458-0.197,0.468-0.325c0.104-0.998,0.147-1.999,0.215-3.029c-1.319,0-2.546,0-3.801,0
				C52.876,46.199,52.876,47.272,52.876,48.448z M38.129,45.08c0.146,0.99,0.272,1.938,0.44,2.879
				c0.029,0.171,0.211,0.458,0.329,0.461c1.044,0.036,2.092,0.022,3.211,0.022c-0.082-1.191-0.157-2.264-0.233-3.361
				C40.6,45.08,39.384,45.08,38.129,45.08z M63.186,51.917c-1.187,0-2.342,0-3.562,0c-0.082,1.116-0.157,2.203-0.243,3.368
				c1.073,0,2.052,0.018,3.029-0.018c0.154-0.007,0.404-0.236,0.429-0.39C62.982,53.909,63.071,52.936,63.186,51.917z
				 M49.315,55.242c0-1.148,0-2.242,0-3.315c-1.191,0-2.31,0-3.505,0c0.079,1.13,0.154,2.203,0.236,3.315
				C47.155,55.242,48.203,55.242,49.315,55.242z M56.187,51.927c-1.162,0-2.231,0-3.308,0c0,1.13,0,2.21,0,3.358
				c0.923,0,1.802,0.025,2.679-0.025c0.146-0.007,0.379-0.3,0.4-0.486C56.066,53.848,56.116,52.915,56.187,51.927z M39.123,51.906
				c0.143,1.044,0.264,2.024,0.422,2.989c0.029,0.143,0.236,0.365,0.368,0.368c0.873,0.036,1.745,0.021,2.686,0.021
				c-0.089-1.205-0.172-2.292-0.25-3.379C41.247,51.906,40.246,51.906,39.123,51.906z"/>
		</g>
	</g>
</g>
<g id="Layer_3">
</g>
</svg>
