<svg version="1.1" xmlns="http://www.w3.org/2000/svg" xmlns:xlink="http://www.w3.org/1999/xlink" 
	 viewBox="0 0 100 100" >
<g id="Layer_2">
</g>
<g id="Layer_1">
	<g>
		<g>
			<g>
				<path fill="#E02726" d="M67.054,13.792c-0.005,0.007-0.744-0.334-1.642-0.757l-2.585-1.073c-0.929-0.35-1.682-0.692-1.673-0.759
					c0.009-0.067-0.011-0.934-0.043-1.926l-0.2-6.083c-0.033-0.992-0.864-1.917-1.847-2.055l-6.308-0.887
					c-0.983-0.138-2.053,0.516-2.378,1.454l-2.086,6.022c-0.325,0.938-1.402,1.755-2.393,1.816l-2.818,0.3
					c-0.983,0.141-1.802,0.216-1.82,0.168c-0.018-0.048-0.447-0.787-0.954-1.641l-3.106-5.24c-0.506-0.854-1.68-1.265-2.608-0.913
					l-5.955,2.256c-0.928,0.352-1.552,1.44-1.386,2.419l1.063,6.255c0.166,0.979-0.383,2.216-1.22,2.75l-2.335,1.631
					c-0.792,0.599-1.471,1.063-1.508,1.032c-0.038-0.031-0.767-0.471-1.621-0.977l-5.24-3.104c-0.854-0.506-2.081-0.303-2.726,0.452
					l-4.139,4.844c-0.645,0.755-0.671,2.012-0.059,2.793l3.921,5.002c0.613,0.781,0.699,2.05,0.191,2.818
					c-0.507,0.769-1.983,4.48-2.031,4.471s-0.898-0.053-1.89-0.096L3.833,34.51c-0.992-0.043-1.969,0.717-2.171,1.689l-1.295,6.231
					c-0.202,0.972,0.38,2.085,1.294,2.473l5.712,2.427c0.914,0.388,1.665,1.518,1.67,2.511l0.309,4.804
					c0.111,0.987,0.159,1.806,0.107,1.82c-0.052,0.015-0.801,0.428-1.664,0.919l-5.312,3.022c-0.863,0.491-1.294,1.657-0.957,2.591
					l2.156,5.985c0.337,0.934,1.415,1.576,2.396,1.426l6.28-0.96c0.981-0.15,2.227,0.409,2.767,1.241l3.632,4.895
					c0.637,0.761,1.129,1.423,1.093,1.471c-0.036,0.047-0.432,0.811-0.881,1.697l-2.754,5.438c-0.449,0.886-0.165,2.096,0.631,2.69
					l5.104,3.809c0.796,0.594,2.049,0.534,2.785-0.132l4.745-4.299c0.736-0.667,1.34-1.214,1.342-1.217
					c0.003-0.003,0.74,0.341,1.638,0.763l2.593,1.063c0.93,0.348,1.683,0.688,1.675,0.755c-0.009,0.067,0.011,0.934,0.044,1.926
					l0.2,6.098c0.033,0.992,0.864,1.917,1.847,2.054l6.303,0.881c0.983,0.137,2.054-0.517,2.38-1.455l2.098-6.046
					c0.325-0.938,0.593-1.72,0.594-1.739s0.812-0.085,1.803-0.148l2.761-0.307c0.983-0.142,1.81-0.196,1.839-0.12
					c0.029,0.076,0.467,0.836,0.973,1.69l3.109,5.244c0.506,0.854,1.68,1.265,2.608,0.912l5.951-2.258
					c0.928-0.352,1.552-1.441,1.386-2.42l-1.069-6.307c-0.166-0.979-0.313-1.804-0.326-1.833s0.659-0.492,1.495-1.028l2.252-1.583
					c0.79-0.601,1.5-1.039,1.577-0.974c0.077,0.065,0.839,0.532,1.693,1.037l5.247,3.105c0.854,0.506,2.081,0.302,2.726-0.453
					l4.133-4.841c0.645-0.755,0.668-2.01,0.051-2.788l-3.975-5.019c-0.616-0.778-1.109-1.588-1.095-1.8
					c0.014-0.212,0.433-1.088,0.93-1.947l1.354-3.173c0.372-0.92,0.763-1.655,0.869-1.632s0.991,0.183,1.969,0.357l4.652,0.828
					c0.978,0.174,1.943-0.479,2.145-1.451l1.295-6.23c0.202-0.972-0.377-2.093-1.287-2.491l-5.313-2.323
					c-0.91-0.398-1.614-0.713-1.564-0.701s0.099-0.79,0.111-1.782l-0.263-4.669c-0.093-0.988-0.075-1.821,0.039-1.85
					s0.915-0.454,1.778-0.943l5.325-3.02c0.864-0.49,1.296-1.655,0.961-2.59l-2.146-5.986c-0.335-0.935-1.412-1.576-2.394-1.425
					l-6.315,0.97c-0.981,0.151-1.802,0.283-1.824,0.293s-0.481-0.663-1.019-1.497l-3.575-4.858c-0.635-0.764-1.11-1.445-1.057-1.514
					c0.053-0.069,0.463-0.851,0.912-1.737l2.748-5.431c0.448-0.886,0.164-2.097-0.631-2.691l-5.101-3.811
					c-0.795-0.594-2.048-0.535-2.785,0.131l-4.744,4.293C67.666,13.235,67.06,13.785,67.054,13.792z"/>
			</g>
		</g>
		<g>
			<defs>
				<path id="SVGID_67_" d="M78.462,24.706c8.826,22.973-0.656,44.688-14.116,53.517c-13.466,8.829-31.531,5.072-40.354-8.387
					c-2.76-4.205-4.404-8.842-4.946-13.498l-3.993-4.435l1.659-27.197H78.462z"/>
			</defs>
			<clipPath id="SVGID_2_">
				<use xlink:href="#SVGID_67_"  overflow="visible"/>
			</clipPath>
			<path clip-path="url(#SVGID_2_)" fill-rule="evenodd" clip-rule="evenodd" fill="#FFFFFF" d="M25.008,56.373
				c-3.382,0.514-6.16-1.688-6.223-4.886c-0.01-0.546,0.328-1.095,0.495-1.647c1.949-6.438,3.893-12.876,5.839-19.317
				c0.202-0.662,0.429-1.319,0.599-1.991c0.139-0.539,0.486-0.757,1-0.782c0.18-0.01,0.36-0.003,0.543-0.003
				c14.04,0,28.08,0,42.124,0c1.265,0,1.315,0.041,1.675,1.221c2.148,7.022,4.287,14.046,6.451,21.062
				c0.82,2.659-0.609,5.498-3.318,6.303c-0.76,0.224-1.609,0.142-2.552,0.208c0,0.145,0,0.439,0,0.732c0,7.343,0,14.687,0,22.027
				c0,1.647-0.508,2.167-2.173,2.17c-6.826,0.006-13.656,0.003-20.481,0.003c-7.239,0-14.482,0.009-21.721-0.022
				c-0.599-0.003-1.325-0.167-1.757-0.533c-0.35-0.293-0.476-1.009-0.476-1.539c-0.031-7.344-0.022-14.684-0.022-22.027
				C25.008,57.045,25.008,56.742,25.008,56.373z M28.289,70.372c13.419,0,26.74,0,40.067,0c0-5.236,0-10.397,0-15.602
				c-2.732,2.751-5.634,2.135-7.697-0.59c-2.694,3.384-5.937,2.949-8.236-0.06c-1.047,1.334-2.246,2.407-4.079,2.416
				c-1.855,0.009-3.063-1.091-4.132-2.438c-1.072,1.385-2.284,2.445-4.123,2.438c-1.833-0.01-3.016-1.104-4.066-2.442
				c-0.984,1.246-2.044,2.287-3.719,2.426c-1.643,0.136-2.889-0.602-4.016-1.845C28.289,60.003,28.289,65.17,28.289,70.372z
				 M58.505,29.069c0.981,7.4,1.949,14.671,2.915,21.939c2.224,0,4.365,0,6.577,0c-0.129-0.647-0.24-1.221-0.366-1.795
				c-1.438-6.511-2.877-13.024-4.337-19.532c-0.054-0.23-0.335-0.577-0.521-0.587C61.388,29.046,60.003,29.069,58.505,29.069z
				 M28.674,51.02c2.217,0,4.34,0,6.517,0c0.99-7.312,1.975-14.583,2.975-21.955c-1.407,0-2.688,0.032-3.968-0.016
				c-0.593-0.019-0.779,0.205-0.896,0.76c-0.672,3.189-1.388,6.372-2.085,9.555C30.371,43.225,29.532,47.086,28.674,51.02z
				 M45.998,29.1c-0.325,7.362-0.644,14.63-0.962,21.907c2.192,0,4.261,0,6.366,0c-0.312-7.334-0.618-14.608-0.927-21.907
				C48.953,29.1,47.521,29.1,45.998,29.1z"/>
		</g>
	</g>
</g>
<g id="Layer_3">
</g>
</svg>
