<?xml version="1.0" encoding="utf-8"?>
<!-- Generator: Adobe Illustrator 17.0.0, SVG Export Plug-In . SVG Version: 6.00 Build 0)  -->
<!DOCTYPE svg PUBLIC "-//W3C//DTD SVG 1.1//EN" "http://www.w3.org/Graphics/SVG/1.1/DTD/svg11.dtd">
<svg version="1.1" xmlns="http://www.w3.org/2000/svg" xmlns:xlink="http://www.w3.org/1999/xlink" x="0px" y="0px" width="100px"
	 height="100px" viewBox="0 0 100 100" enable-background="new 0 0 100 100" xml:space="preserve">
<g id="Layer_2">
</g>
<g id="Layer_1">
	<g>
		<g>
			<g>
				<path fill="#FFFFFF" d="M68.353,14.176c-0.005,0.007-0.751-0.347-1.656-0.787l-2.609-1.118c-0.938-0.366-1.697-0.722-1.688-0.79
					c0.01-0.068,0-0.947-0.021-1.954l-0.13-6.171c-0.021-1.007-0.853-1.954-1.848-2.106l-6.385-0.974
					c-0.995-0.152-2.088,0.499-2.429,1.447L49.4,7.804c-0.341,0.947-1.442,1.763-2.448,1.813l-2.861,0.27
					c-0.998,0.131-1.83,0.198-1.848,0.149c-0.018-0.049-0.444-0.803-0.947-1.675l-3.087-5.351c-0.503-0.872-1.688-1.303-2.634-0.957
					L29.51,4.271c-0.946,0.346-1.591,1.442-1.434,2.437l1.004,6.355c0.157,0.994-0.414,2.243-1.27,2.774l-2.387,1.626
					c-0.81,0.598-1.504,1.06-1.542,1.028c-0.038-0.032-0.772-0.487-1.633-1.01l-5.276-3.21c-0.86-0.523-2.106-0.331-2.769,0.426
					L9.949,19.56c-0.663,0.758-0.705,2.032-0.093,2.831l3.917,5.118c0.612,0.8,0.684,2.087,0.16,2.86
					c-0.524,0.774-2.064,4.519-2.112,4.509c-0.048-0.01-0.91-0.064-1.915-0.12l-5.904-0.327c-1.005-0.056-2.005,0.703-2.221,1.687
					l-1.387,6.302c-0.216,0.983,0.361,2.119,1.283,2.523l5.763,2.528c0.922,0.405,1.671,1.559,1.664,2.566l0.257,4.875
					c0.101,1.002,0.14,1.833,0.087,1.847c-0.053,0.014-0.817,0.425-1.698,0.912l-5.422,3.001c-0.881,0.488-1.331,1.665-1.001,2.616
					l2.115,6.094c0.33,0.951,1.416,1.614,2.413,1.474l6.379-0.899c0.997-0.14,2.253,0.441,2.791,1.292l3.625,5.006
					c0.637,0.78,1.128,1.456,1.091,1.504c-0.037,0.048-0.448,0.817-0.913,1.71l-2.857,5.482c-0.465,0.893-0.192,2.124,0.608,2.735
					l5.13,3.923c0.8,0.612,2.071,0.566,2.825-0.101l4.863-4.303c0.754-0.667,1.373-1.215,1.376-1.218
					c0.003-0.003,0.746,0.354,1.652,0.793l2.617,1.109c0.939,0.364,1.699,0.718,1.689,0.785c-0.01,0.068,0,0.947,0.021,1.954
					l0.131,6.185c0.021,1.007,0.853,1.954,1.848,2.105l6.381,0.968c0.995,0.151,2.089-0.5,2.43-1.448l2.199-6.106
					c0.341-0.947,0.621-1.737,0.622-1.756c0.001-0.018,0.825-0.077,1.83-0.129l2.803-0.279c0.998-0.132,1.838-0.177,1.867-0.1
					c0.029,0.077,0.464,0.854,0.967,1.726l3.091,5.355c0.503,0.872,1.689,1.302,2.634,0.956l6.061-2.219
					c0.945-0.346,1.591-1.443,1.434-2.438l-1.009-6.408c-0.157-0.995-0.296-1.833-0.309-1.863c-0.013-0.03,0.674-0.491,1.528-1.025
					l2.302-1.578c0.809-0.6,1.533-1.036,1.611-0.969c0.077,0.067,0.844,0.549,1.705,1.072l5.283,3.211
					c0.86,0.523,2.106,0.331,2.769-0.427l4.248-4.86c0.663-0.758,0.701-2.03,0.085-2.826l-3.971-5.137
					c-0.616-0.797-1.106-1.624-1.089-1.838c0.017-0.214,0.452-1.098,0.966-1.963l1.41-3.202c0.389-0.929,0.794-1.669,0.9-1.645
					c0.107,0.024,1.003,0.198,1.992,0.386l4.707,0.894c0.989,0.188,1.975-0.463,2.192-1.446l1.387-6.301
					c0.216-0.983-0.357-2.127-1.275-2.541l-5.359-2.419c-0.918-0.414-1.628-0.742-1.578-0.729c0.05,0.013,0.11-0.799,0.133-1.806
					l-0.212-4.737c-0.082-1.003-0.055-1.847,0.062-1.875c0.116-0.028,0.933-0.449,1.814-0.936l5.435-3
					c0.881-0.486,1.334-1.663,1.005-2.615l-2.105-6.095c-0.329-0.952-1.413-1.615-2.41-1.474l-6.415,0.908
					c-0.997,0.141-1.831,0.265-1.853,0.276c-0.023,0.011-0.48-0.678-1.016-1.53l-3.567-4.969c-0.634-0.782-1.109-1.478-1.054-1.548
					c0.055-0.07,0.48-0.857,0.945-1.75l2.851-5.474c0.465-0.893,0.191-2.124-0.608-2.736L77.42,8.554
					c-0.799-0.612-2.071-0.567-2.825,0.1l-4.861,4.297C68.98,13.618,68.358,14.169,68.353,14.176z"/>
			</g>
		</g>
		<g>
			<path fill="#E02726" stroke="#E02726" stroke-width="0.9469" stroke-miterlimit="10" d="M58.82,71.274V54.999H39.038v16.274
				h-7.591V31.019h7.591v16.965H58.82V31.019h7.533v40.255H58.82z"/>
		</g>
	</g>
</g>
<g id="Layer_3">
</g>
</svg>
