<?xml version="1.0" encoding="utf-8"?>
<!-- Generator: Adobe Illustrator 17.0.0, SVG Export Plug-In . SVG Version: 6.00 Build 0)  -->
<!DOCTYPE svg PUBLIC "-//W3C//DTD SVG 1.1//EN" "http://www.w3.org/Graphics/SVG/1.1/DTD/svg11.dtd">
<svg version="1.1" xmlns="http://www.w3.org/2000/svg" xmlns:xlink="http://www.w3.org/1999/xlink" x="0px" y="0px" width="100px"
	 height="100px" viewBox="0 0 100 100" enable-background="new 0 0 100 100" xml:space="preserve">
<g id="Layer_2">
</g>
<g id="Layer_1">
	<g>
		<g>
			<g>
				<path fill="#E02726" d="M67.606,13.55c-0.005,0.007-0.743-0.344-1.638-0.779l-2.58-1.106c-0.928-0.362-1.679-0.714-1.669-0.781
					s0-0.937-0.021-1.932l-0.129-6.103c-0.021-0.996-0.844-1.933-1.828-2.083l-6.316-0.963c-0.984-0.15-2.066,0.494-2.402,1.431
					L48.86,7.248c-0.337,0.937-1.426,1.744-2.421,1.793l-2.83,0.267c-0.987,0.13-1.81,0.196-1.827,0.147
					c-0.018-0.049-0.439-0.794-0.937-1.657l-3.053-5.292c-0.498-0.863-1.67-1.289-2.605-0.947l-5.999,2.193
					c-0.935,0.342-1.573,1.426-1.418,2.41l0.993,6.285c0.155,0.984-0.41,2.218-1.256,2.743l-2.361,1.609
					c-0.801,0.591-1.488,1.049-1.525,1.017c-0.037-0.032-0.764-0.481-1.615-0.999l-5.218-3.175
					c-0.851-0.518-2.083-0.328-2.739,0.422l-4.208,4.81c-0.656,0.749-0.697,2.01-0.092,2.801l3.874,5.062
					c0.605,0.791,0.677,2.064,0.159,2.829s-2.041,4.47-2.089,4.46c-0.048-0.01-0.9-0.063-1.894-0.118l-5.84-0.323
					c-0.994-0.055-1.983,0.696-2.197,1.668l-1.372,6.234c-0.214,0.973,0.357,2.096,1.269,2.496l5.7,2.501
					c0.912,0.4,1.652,1.542,1.646,2.538l0.254,4.822c0.1,0.991,0.138,1.813,0.086,1.827c-0.052,0.014-0.808,0.42-1.679,0.902
					l-5.363,2.968c-0.871,0.482-1.317,1.647-0.99,2.587l2.092,6.027c0.327,0.941,1.401,1.597,2.387,1.458l6.31-0.889
					c0.986-0.139,2.228,0.436,2.761,1.277l3.585,4.952c0.63,0.771,1.116,1.44,1.079,1.488c-0.037,0.047-0.443,0.808-0.903,1.691
					l-2.826,5.422c-0.46,0.883-0.19,2.1,0.601,2.705l5.074,3.88c0.791,0.605,2.048,0.56,2.794-0.1l4.81-4.255
					c0.746-0.66,1.358-1.202,1.361-1.204c0.003-0.003,0.738,0.351,1.634,0.784l2.589,1.097c0.928,0.36,1.68,0.71,1.671,0.777
					c-0.009,0.067,0,0.937,0.021,1.932l0.129,6.118c0.021,0.996,0.844,1.932,1.828,2.082l6.311,0.958
					c0.985,0.149,2.066-0.495,2.404-1.432l2.175-6.039c0.337-0.937,0.614-1.718,0.616-1.737c0.001-0.018,0.816-0.076,1.81-0.128
					l2.772-0.276c0.987-0.131,1.818-0.175,1.846-0.099c0.028,0.076,0.459,0.844,0.956,1.707l3.057,5.296
					c0.498,0.862,1.67,1.288,2.605,0.946l5.995-2.195c0.935-0.342,1.573-1.427,1.419-2.411l-0.998-6.338
					c-0.155-0.984-0.292-1.813-0.306-1.842c-0.013-0.03,0.667-0.486,1.511-1.014l2.277-1.561c0.8-0.593,1.517-1.025,1.593-0.959
					s0.835,0.543,1.686,1.06l5.226,3.176c0.851,0.517,2.083,0.327,2.739-0.423l4.202-4.807c0.655-0.75,0.693-2.008,0.084-2.796
					l-3.928-5.081c-0.609-0.788-1.094-1.606-1.077-1.818c0.017-0.212,0.447-1.086,0.956-1.941l1.395-3.167
					c0.384-0.919,0.785-1.651,0.89-1.627c0.105,0.024,0.992,0.196,1.97,0.381l4.656,0.885c0.978,0.186,1.954-0.458,2.168-1.43
					l1.372-6.233c0.214-0.973-0.354-2.103-1.261-2.513l-5.301-2.392c-0.908-0.41-1.61-0.734-1.561-0.721
					c0.049,0.013,0.109-0.791,0.132-1.786l-0.209-4.686c-0.082-0.992-0.054-1.827,0.061-1.855s0.923-0.444,1.795-0.925l5.376-2.967
					c0.872-0.481,1.319-1.645,0.994-2.586l-2.082-6.028c-0.325-0.941-1.398-1.597-2.384-1.458l-6.345,0.898
					c-0.986,0.14-1.811,0.262-1.833,0.273c-0.022,0.01-0.474-0.671-1.005-1.514l-3.528-4.914c-0.628-0.773-1.097-1.462-1.042-1.531
					c0.054-0.069,0.475-0.848,0.935-1.731l2.82-5.414c0.46-0.883,0.189-2.101-0.601-2.706L76.574,7.99
					c-0.791-0.605-2.048-0.561-2.794,0.099l-4.808,4.25C68.226,12.998,67.611,13.543,67.606,13.55z"/>
			</g>
			<g>
				<path fill="none" stroke="#E02726" stroke-width="0.9365" stroke-miterlimit="10" d="M67.606,13.55
					c-0.005,0.007-0.743-0.344-1.638-0.779l-2.58-1.106c-0.928-0.362-1.679-0.714-1.669-0.781s0-0.937-0.021-1.932l-0.129-6.103
					c-0.021-0.996-0.844-1.933-1.828-2.083l-6.316-0.963c-0.984-0.15-2.066,0.494-2.402,1.431L48.86,7.248
					c-0.337,0.937-1.426,1.744-2.421,1.793l-2.83,0.267c-0.987,0.13-1.81,0.196-1.827,0.147c-0.018-0.049-0.439-0.794-0.937-1.657
					l-3.053-5.292c-0.498-0.863-1.67-1.289-2.605-0.947l-5.999,2.193c-0.935,0.342-1.573,1.426-1.418,2.41l0.993,6.285
					c0.155,0.984-0.41,2.218-1.256,2.743l-2.361,1.609c-0.801,0.591-1.488,1.049-1.525,1.017c-0.037-0.032-0.764-0.481-1.615-0.999
					l-5.218-3.175c-0.851-0.518-2.083-0.328-2.739,0.422l-4.208,4.81c-0.656,0.749-0.697,2.01-0.092,2.801l3.874,5.062
					c0.605,0.791,0.677,2.064,0.159,2.829s-2.041,4.47-2.089,4.46c-0.048-0.01-0.9-0.063-1.894-0.118l-5.84-0.323
					c-0.994-0.055-1.983,0.696-2.197,1.668l-1.372,6.234c-0.214,0.973,0.357,2.096,1.269,2.496l5.7,2.501
					c0.912,0.4,1.652,1.542,1.646,2.538l0.254,4.822c0.1,0.991,0.138,1.813,0.086,1.827c-0.052,0.014-0.808,0.42-1.679,0.902
					l-5.363,2.968c-0.871,0.482-1.317,1.647-0.99,2.587l2.092,6.027c0.327,0.941,1.401,1.597,2.387,1.458l6.31-0.889
					c0.986-0.139,2.228,0.436,2.761,1.277l3.585,4.952c0.63,0.771,1.116,1.44,1.079,1.488c-0.037,0.047-0.443,0.808-0.903,1.691
					l-2.826,5.422c-0.46,0.883-0.19,2.1,0.601,2.705l5.074,3.88c0.791,0.605,2.048,0.56,2.794-0.1l4.81-4.255
					c0.746-0.66,1.358-1.202,1.361-1.204c0.003-0.003,0.738,0.351,1.634,0.784l2.589,1.097c0.928,0.36,1.68,0.71,1.671,0.777
					c-0.009,0.067,0,0.937,0.021,1.932l0.129,6.118c0.021,0.996,0.844,1.932,1.828,2.082l6.311,0.958
					c0.985,0.149,2.066-0.495,2.404-1.432l2.175-6.039c0.337-0.937,0.614-1.718,0.616-1.737c0.001-0.018,0.816-0.076,1.81-0.128
					l2.772-0.276c0.987-0.131,1.818-0.175,1.846-0.099c0.028,0.076,0.459,0.844,0.956,1.707l3.057,5.296
					c0.498,0.862,1.67,1.288,2.605,0.946l5.995-2.195c0.935-0.342,1.573-1.427,1.419-2.411l-0.998-6.338
					c-0.155-0.984-0.292-1.813-0.306-1.842c-0.013-0.03,0.667-0.486,1.511-1.014l2.277-1.561c0.8-0.593,1.517-1.025,1.593-0.959
					s0.835,0.543,1.686,1.06l5.226,3.176c0.851,0.517,2.083,0.327,2.739-0.423l4.202-4.807c0.655-0.75,0.693-2.008,0.084-2.796
					l-3.928-5.081c-0.609-0.788-1.094-1.606-1.077-1.818c0.017-0.212,0.447-1.086,0.956-1.941l1.395-3.167
					c0.384-0.919,0.785-1.651,0.89-1.627c0.105,0.024,0.992,0.196,1.97,0.381l4.656,0.885c0.978,0.186,1.954-0.458,2.168-1.43
					l1.372-6.233c0.214-0.973-0.354-2.103-1.261-2.513l-5.301-2.392c-0.908-0.41-1.61-0.734-1.561-0.721
					c0.049,0.013,0.109-0.791,0.132-1.786l-0.209-4.686c-0.082-0.992-0.054-1.827,0.061-1.855s0.923-0.444,1.795-0.925l5.376-2.967
					c0.872-0.481,1.319-1.645,0.994-2.586l-2.082-6.028c-0.325-0.941-1.398-1.597-2.384-1.458l-6.345,0.898
					c-0.986,0.14-1.811,0.262-1.833,0.273c-0.022,0.01-0.474-0.671-1.005-1.514l-3.528-4.914c-0.628-0.773-1.097-1.462-1.042-1.531
					c0.054-0.069,0.475-0.848,0.935-1.731l2.82-5.414c0.46-0.883,0.189-2.101-0.601-2.706L76.574,7.99
					c-0.791-0.605-2.048-0.561-2.794,0.099l-4.808,4.25C68.226,12.998,67.611,13.543,67.606,13.55z"/>
			</g>
		</g>
		<g>
			<path fill="#FFFFFF" d="M58.177,70.024V53.928H38.611v16.096h-7.508V30.209h7.508v16.779h19.566V30.209h7.451v39.815H58.177z"/>
		</g>
	</g>
</g>
<g id="Layer_3">
</g>
</svg>
