<?xml version="1.0" encoding="utf-8"?>
<!-- Generator: Adobe Illustrator 17.0.0, SVG Export Plug-In . SVG Version: 6.00 Build 0)  -->
<!DOCTYPE svg PUBLIC "-//W3C//DTD SVG 1.1//EN" "http://www.w3.org/Graphics/SVG/1.1/DTD/svg11.dtd">
<svg version="1.1" xmlns="http://www.w3.org/2000/svg" xmlns:xlink="http://www.w3.org/1999/xlink" x="0px" y="0px" width="100px"
	 height="100px" viewBox="0 0 100 100" enable-background="new 0 0 100 100" xml:space="preserve">
<g id="Layer_2">
</g>
<g id="Layer_1">
	<g>
		<g>
			<g>
				<path fill="#E02726" d="M67.298,13.761c-0.005,0.007-0.747-0.335-1.648-0.76l-2.595-1.077c-0.932-0.352-1.688-0.694-1.679-0.762
					s-0.011-0.937-0.043-1.933l-0.2-6.106c-0.033-0.996-0.867-1.924-1.854-2.063l-6.33-0.89c-0.987-0.139-2.061,0.518-2.387,1.46
					l-2.094,6.044c-0.326,0.942-1.407,1.762-2.401,1.823l-2.828,0.301c-0.986,0.141-1.808,0.217-1.827,0.169
					c-0.018-0.048-0.449-0.789-0.957-1.647l-3.117-5.259c-0.508-0.857-1.686-1.27-2.618-0.917l-5.977,2.264
					c-0.932,0.353-1.558,1.446-1.391,2.428l1.067,6.277c0.167,0.982-0.384,2.224-1.224,2.76l-2.343,1.637
					c-0.795,0.601-1.476,1.067-1.514,1.036s-0.77-0.473-1.627-0.981L16.45,14.45c-0.857-0.508-2.088-0.304-2.736,0.454l-4.154,4.862
					c-0.647,0.758-0.674,2.019-0.059,2.803l3.935,5.02c0.615,0.784,0.701,2.057,0.192,2.829c-0.509,0.772-1.99,4.497-2.038,4.487
					c-0.048-0.009-0.901-0.053-1.897-0.096l-5.847-0.255c-0.996-0.043-1.976,0.719-2.179,1.695l-1.3,6.253
					c-0.203,0.976,0.382,2.093,1.299,2.482L7.4,47.42c0.917,0.39,1.671,1.524,1.676,2.52l0.311,4.822
					c0.111,0.99,0.16,1.812,0.108,1.827c-0.052,0.015-0.804,0.43-1.67,0.922l-5.331,3.033c-0.866,0.493-1.298,1.663-0.961,2.6
					l2.164,6.006c0.338,0.937,1.42,1.581,2.405,1.431l6.303-0.963c0.985-0.151,2.235,0.41,2.777,1.246l3.645,4.913
					c0.64,0.764,1.133,1.428,1.097,1.476s-0.434,0.814-0.884,1.703l-2.764,5.458c-0.45,0.889-0.165,2.104,0.633,2.7l5.122,3.823
					c0.799,0.596,2.056,0.536,2.795-0.133l4.763-4.314c0.738-0.669,1.345-1.218,1.347-1.221c0.003-0.003,0.743,0.342,1.644,0.766
					l2.603,1.067c0.933,0.349,1.69,0.69,1.681,0.758c-0.009,0.067,0.011,0.937,0.044,1.933l0.201,6.12
					c0.033,0.996,0.867,1.924,1.854,2.062l6.326,0.884c0.987,0.138,2.062-0.519,2.388-1.461l2.105-6.068
					c0.327-0.941,0.595-1.727,0.596-1.745s0.815-0.085,1.81-0.149l2.771-0.308c0.986-0.142,1.817-0.197,1.846-0.121
					c0.029,0.076,0.469,0.839,0.977,1.696l3.121,5.264c0.508,0.857,1.686,1.269,2.618,0.916l5.973-2.266
					c0.932-0.354,1.558-1.447,1.391-2.429l-1.073-6.33c-0.167-0.982-0.314-1.81-0.327-1.84s0.661-0.494,1.5-1.032l2.26-1.589
					c0.793-0.603,1.506-1.043,1.583-0.978c0.077,0.065,0.842,0.534,1.7,1.041l5.266,3.117c0.858,0.508,2.088,0.303,2.735-0.455
					l4.148-4.859c0.647-0.758,0.67-2.017,0.052-2.798l-3.99-5.038c-0.619-0.781-1.113-1.594-1.099-1.806
					c0.014-0.212,0.434-1.091,0.934-1.954l1.359-3.185c0.374-0.924,0.766-1.661,0.872-1.638c0.106,0.023,0.995,0.184,1.976,0.359
					l4.669,0.831c0.981,0.175,1.95-0.481,2.152-1.456l1.299-6.252c0.203-0.976-0.378-2.1-1.291-2.5l-5.332-2.332
					c-0.913-0.399-1.619-0.716-1.57-0.703c0.049,0.013,0.099-0.792,0.111-1.789l-0.264-4.686c-0.093-0.992-0.076-1.828,0.039-1.857
					c0.115-0.029,0.918-0.455,1.785-0.947l5.344-3.031c0.867-0.492,1.301-1.661,0.964-2.599l-2.154-6.007
					c-0.336-0.938-1.417-1.582-2.402-1.43l-6.338,0.973c-0.985,0.151-1.809,0.284-1.831,0.294c-0.022,0.011-0.483-0.666-1.023-1.503
					l-3.588-4.876c-0.637-0.766-1.114-1.45-1.061-1.52c0.053-0.07,0.465-0.854,0.915-1.743l2.758-5.45
					c0.45-0.889,0.165-2.104-0.633-2.701l-5.12-3.825c-0.798-0.596-2.056-0.537-2.795,0.131l-4.761,4.309
					C67.912,13.202,67.303,13.754,67.298,13.761z"/>
			</g>
		</g>
		<g>
			<defs>
				<path id="SVGID_63_" d="M76.883,36.084c9.498,14.488,3.448,32.672-11.037,42.17c-14.491,9.505-33.935,5.462-43.43-9.025
					c-9.502-14.487-6.71-33.695,7.778-43.193l4.471-12.738c0,0,37.754,1.9,43.117,14.523"/>
			</defs>
			<clipPath id="SVGID_2_">
				<use xlink:href="#SVGID_63_"  overflow="visible"/>
			</clipPath>
			<g clip-path="url(#SVGID_2_)">
				<path fill="#FFFFFF" d="M57.036,20.043c4.973,1.292,7.356,10.458,5.299,18.373c-1.593,6.137-2.28,9.019-6.265,11.293
					c-1.263,0.719-2.606,1.433-3.79,1.938c-0.566,0.444-1.193,1.126-1.49,2.104l-2.789,9.485l-9.214,43.98
					c-0.003,0.013,0,0.026-0.003,0.035c-0.131,0.505-1.756,0.521-3.627,0.035c-1.874-0.486-3.284-1.292-3.153-1.797
					c0.003-0.007,0.01-0.013,0.013-0.026l12.927-43.181l2.523-9.402c0,0,0.358-0.972-0.288-2.558
					c-0.723-0.876-1.88-1.916-2.389-3.211c-1.129-2.866-1.954-7.621-0.464-13.368C46.383,25.825,52.063,18.751,57.036,20.043z"/>
				<path fill="#FFFFFF" d="M76.701,28.051c0,0-0.374-1.586-3.451-0.895c0,0-3.243,0.627-8.692,13.336c0,0-3.026,7.848-5.929,21.664
					c0,0-0.233,0.895,0.365,1.359c0,0,1.628,0.831,1.33,3.553c0,0-0.029,0.038-0.074,0.105c-0.412,0.307-0.736,0.771-0.883,1.334
					c-0.109,0.419-0.102,0.838-0.006,1.222c0.019,0.214,0.073,0.422,0.179,0.614l-10.803,39.496
					c-0.003,0.007-0.009,0.016-0.013,0.026c-0.125,0.486,1.238,1.263,3.048,1.733c1.791,0.464,3.342,0.454,3.496-0.019l0,0
					c0.003-0.007,0.006-0.007,0.009-0.013v-0.023l8.952-39.916c0.572-0.281,1.039-0.831,1.225-1.544
					c0.147-0.569,0.086-1.139-0.131-1.615c-0.013-0.07-0.026-0.141-0.042-0.211c0,0,0.348-1.004,1.964-2.379l9.019-33.622
					C76.263,32.256,77.29,29.548,76.701,28.051z"/>
				<path fill="#FFFFFF" d="M40.022,19.928l-4.538,16.944c-0.003,0-0.003,0-0.006,0.003c-0.09,0.329-0.429,0.528-0.761,0.445
					c-0.313-0.083-0.509-0.39-0.461-0.71c0-0.007-0.003-0.013-0.003-0.013l4.113-17.097c0.425-1.362-0.272-1.842-0.272-1.842
					c-0.873,0.077-1.218,1.5-1.218,1.5l-5.069,16.851c-0.007,0.013-0.013,0.019-0.019,0.026v0.007
					c-0.045,0.169-0.173,0.288-0.326,0.345c-0.083,0.045-0.16,0.045-0.227,0.019c-0.016,0-0.035,0.003-0.051,0
					c-0.262-0.07-0.422-0.345-0.352-0.614c0.003-0.013,0.016-0.026,0.019-0.038l4.874-16.988c0.24-3.214-1.449-0.457-1.449-0.457
					l-2.913,7.823l-4.487,12.412c-0.233,0.64-0.537,1.452-0.656,2.245c-0.073,0.505-0.073,1.004,0.064,1.452
					c0.236,0.749,0.819,1.145,1.27,1.727c0.003,0.003,1.222,1.573,1.222,1.573c1.11,1.446,0.563,2.655,0.563,2.655l-15.444,52.58
					c-0.003,0.009-0.01,0.016-0.01,0.022c-0.131,0.502,1.27,1.298,3.128,1.778c1.855,0.486,3.467,0.467,3.595-0.032
					c0.006-0.016,0.003-0.032,0.006-0.048l12.569-53.348c0.764-1.817,2.587-2.219,2.587-2.219l1.154-0.39
					c1.98-0.46,2.523-2.091,2.523-2.091c0.198-0.755,0.46-1.541,0.662-2.309c0.368-1.382,0.607-2.782,0.883-4.183
					c0.336-1.708,0.659-3.415,0.979-5.123c0.346-1.842,0.707-3.681,1.062-5.52c0.288-1.477,0.569-2.958,0.857-4.436
					c0.115-0.598,0.23-1.199,0.345-1.801c-0.16-3.48-1.593-0.326-1.593-0.326l-4.046,17.027c-0.003,0-0.006,0-0.009,0.006
					c-0.102,0.294-0.413,0.467-0.719,0.384c-0.323-0.083-0.515-0.409-0.432-0.736c0,0,0.007-0.013,0.007-0.019
					c0-0.016,0-0.029,0-0.029l4.081-16.969C41.701,16.186,40.022,19.928,40.022,19.928z"/>
			</g>
		</g>
	</g>
</g>
<g id="Layer_3">
</g>
</svg>
