<?xml version="1.0" encoding="utf-8"?>
<!-- Generator: Adobe Illustrator 17.0.0, SVG Export Plug-In . SVG Version: 6.00 Build 0)  -->
<!DOCTYPE svg PUBLIC "-//W3C//DTD SVG 1.1//EN" "http://www.w3.org/Graphics/SVG/1.1/DTD/svg11.dtd">
<svg version="1.1" xmlns="http://www.w3.org/2000/svg" xmlns:xlink="http://www.w3.org/1999/xlink" x="0px" y="0px" width="100px"
	 height="100px" viewBox="0 0 100 100" enable-background="new 0 0 100 100" xml:space="preserve">
<g id="Layer_2">
</g>
<g id="Layer_1">
	<path fill="#EC1C24" d="M98.956,40.97c-0.036-0.478-0.413-0.867-0.888-0.923l-9.439-1.094l-0.087-0.1
		c-0.463-1.798-0.925-3.357-2.049-5.704l6.359-4.436c0.449-0.31,0.568-0.921,0.265-1.373l-5.399-8.24
		c-0.265-0.405-0.775-0.56-1.21-0.386l-7.838,3.072c-1.374-1.449-3.107-3.168-5.101-4.663l2.488-9.023
		c0.133-0.473-0.094-0.973-0.54-1.183l-8.902-4.202c-0.431-0.208-0.953-0.079-1.242,0.316l-5.486,7.479
		c-2.694-0.698-5.439-1.119-8.176-1.252l-2.869-8.75c-0.157-0.467-0.615-0.752-1.106-0.682l-9.753,1.416
		c-0.476,0.065-0.837,0.463-0.86,0.945l-0.435,9.207c-1.692,0.573-3.237,1.206-4.684,1.908l-6.67-6.243
		c-0.365-0.335-0.91-0.371-1.295-0.069l-7.875,5.931c-0.385,0.288-0.504,0.812-0.298,1.247l4.011,8.243
		c-1.215,1.316-2.273,2.618-3.218,3.948l-8.79-2.25c-0.485-0.124-0.973,0.115-1.168,0.564l-4.048,8.983
		c-0.198,0.439-0.055,0.953,0.334,1.237l7.457,5.289c-0.413,1.686-0.716,3.375-0.903,5.024l-8.783,2.245
		c-0.471,0.118-0.791,0.568-0.755,1.055l0.78,9.826c0.036,0.478,0.402,0.862,0.879,0.926l9.075,1.1l0.059,0.227
		c0.334,1.403,0.628,2.628,1.618,4.703L5.96,71.2c-0.36,0.339-0.431,0.884-0.16,1.297l5.404,8.241
		c0.262,0.399,0.765,0.553,1.218,0.381l8.351-3.369c1.755,1.837,3.497,3.382,5.289,4.694l-2.409,8.781
		c-0.129,0.473,0.101,0.967,0.544,1.178l8.911,4.189c0.436,0.201,0.953,0.075,1.241-0.31l5.418-7.379
		c2.76,0.705,5.546,1.121,8.296,1.241l2.832,8.653c0.137,0.419,0.532,0.693,0.962,0.693c0.044,0,0.091,0,0.141-0.009l9.749-1.411
		c0.478-0.075,0.845-0.467,0.863-0.949l0.457-9.207c1.705-0.582,3.24-1.211,4.667-1.912l6.672,6.248
		c0.359,0.338,0.903,0.357,1.297,0.069l7.861-5.936c0.385-0.284,0.511-0.808,0.302-1.243l-4.043-8.347
		c1.201-1.32,2.238-2.603,3.135-3.876l8.907,2.283c0.467,0.109,0.967-0.119,1.168-0.568l4.042-8.983
		c0.197-0.442,0.056-0.953-0.335-1.237l-7.603-5.396c0.395-1.627,0.679-3.259,0.863-4.863l8.977-2.301
		c0.473-0.122,0.794-0.568,0.758-1.058L98.956,40.97z M72.777,71.553c-1.705-0.712-3.411-1.422-5.112-2.145
		c-2.171-0.923-4.336-1.865-6.483-2.841c-0.756-0.343-1.107-0.997-1.26-1.844c-0.187-1.027,0.308-2.35-1.097-2.933
		c-0.019-0.008-0.028-0.04-0.041-0.061c-0.621-1.037-0.143-3.413,0.836-4.134c0.751-0.552,1.404-1.211,1.542-2.155
		c0.207-1.431,0.805-2.679,1.516-3.909c0.387-0.672,0.725-1.387,0.973-2.121c0.452-1.343,0.829-2.746,0.351-4.143
		c-0.974-2.851-1.243-5.801-1.301-8.774c-0.029-1.47-0.502-2.708-1.418-3.8c-1.987-2.369-4.516-3.901-7.475-4.739
		c-1.477-0.419-2.975-0.472-4.481-0.138c-2.121,0.471-4.257,0.812-6.438,0.591c-1.056-0.106-1.907,0.276-2.711,0.91
		c-1.788,1.409-3.015,3.216-3.494,5.416c-0.495,2.277-0.81,4.599-1.119,6.913c-0.149,1.119,0.065,2.303-0.182,3.389
		c-0.755,3.315,0.163,5.999,2.698,8.2c0.188,0.163,0.341,0.464,0.357,0.71c0.07,1.179,0.66,2.062,1.406,2.928
		c0.452,0.526,0.819,1.206,0.981,1.875c0.152,0.637-0.021,1.349-0.036,2.03c-0.014,0.699-0.109,1.335-0.798,1.749
		c-0.172,0.103-0.258,0.423-0.298,0.657c-0.087,0.521-0.153,1.05-0.169,1.577c-0.024,0.84-0.425,1.455-1.118,1.849
		c-0.829,0.473-1.672,0.942-2.558,1.287c-2.295,0.893-4.642,1.655-6.919,2.587c-0.757,0.31-1.505,0.645-2.255,0.973
		c-1.259-1.339-2.418-2.791-3.446-4.36c-4.652-7.09-6.26-15.569-4.537-23.866c1.728-8.304,6.582-15.436,13.672-20.082
		c5.194-3.401,11.198-5.204,17.376-5.204c10.753,0,20.689,5.359,26.574,14.342C84.543,44.833,82.696,61.115,72.777,71.553z"/>
</g>
<g id="Layer_3">
</g>
</svg>
