<?xml version="1.0" encoding="utf-8"?>
<!-- Generator: Adobe Illustrator 17.0.0, SVG Export Plug-In . SVG Version: 6.00 Build 0)  -->
<!DOCTYPE svg PUBLIC "-//W3C//DTD SVG 1.1//EN" "http://www.w3.org/Graphics/SVG/1.1/DTD/svg11.dtd">
<svg version="1.1" xmlns="http://www.w3.org/2000/svg" xmlns:xlink="http://www.w3.org/1999/xlink" x="0px" y="0px" width="100px"
	 height="100px" viewBox="0 0 100 100" enable-background="new 0 0 100 100" xml:space="preserve">
<g id="Layer_2">
</g>
<g id="Layer_1">
	<g>
		<g>
			<g>
				<path fill="#FFFFFF" d="M67.723,13.93c-0.005,0.007-0.752-0.337-1.659-0.765l-2.611-1.083c-0.938-0.354-1.699-0.699-1.69-0.767
					c0.009-0.068-0.011-0.943-0.044-1.946l-0.202-6.144c-0.033-1.002-0.872-1.936-1.865-2.076l-6.371-0.896
					c-0.993-0.14-2.074,0.521-2.402,1.469l-2.107,6.082c-0.328,0.948-1.416,1.773-2.417,1.834l-2.846,0.303
					c-0.993,0.142-1.82,0.219-1.838,0.17c-0.018-0.049-0.452-0.794-0.963-1.657l-3.137-5.293c-0.511-0.863-1.697-1.278-2.634-0.922
					l-6.015,2.279c-0.938,0.355-1.567,1.455-1.399,2.443l1.074,6.317c0.168,0.989-0.386,2.238-1.232,2.777l-2.358,1.648
					c-0.8,0.605-1.485,1.074-1.523,1.042c-0.038-0.032-0.775-0.476-1.638-0.987l-5.292-3.135c-0.863-0.511-2.101-0.306-2.753,0.457
					l-4.18,4.893c-0.651,0.762-0.678,2.032-0.059,2.821l3.96,5.051c0.619,0.789,0.706,2.07,0.193,2.847
					c-0.513,0.776-2.003,4.525-2.051,4.515c-0.048-0.01-0.907-0.053-1.909-0.097l-5.884-0.257c-1.002-0.044-1.988,0.724-2.192,1.706
					l-1.308,6.293c-0.204,0.982,0.384,2.106,1.307,2.498l5.768,2.451c0.923,0.392,1.682,1.533,1.687,2.536l0.312,4.852
					c0.112,0.996,0.161,1.824,0.108,1.838c-0.053,0.015-0.809,0.432-1.68,0.928l-5.365,3.052c-0.872,0.496-1.307,1.673-0.967,2.617
					l2.178,6.044c0.34,0.943,1.429,1.591,2.42,1.44l6.343-0.969c0.991-0.151,2.249,0.413,2.795,1.254l3.668,4.944
					c0.644,0.769,1.14,1.437,1.104,1.485c-0.036,0.048-0.437,0.819-0.89,1.714l-2.782,5.493c-0.453,0.895-0.166,2.117,0.637,2.717
					l5.155,3.847c0.804,0.6,2.069,0.54,2.812-0.134l4.793-4.342c0.743-0.673,1.353-1.226,1.356-1.229s0.747,0.344,1.655,0.771
					l2.619,1.074c0.939,0.352,1.7,0.695,1.692,0.763c-0.009,0.068,0.011,0.943,0.044,1.945l0.202,6.158
					c0.033,1.002,0.872,1.936,1.865,2.075l6.366,0.89c0.993,0.139,2.075-0.523,2.403-1.47l2.119-6.106
					c0.329-0.947,0.598-1.738,0.599-1.756c0.001-0.018,0.821-0.086,1.821-0.15l2.788-0.31c0.992-0.143,1.828-0.198,1.858-0.122
					c0.029,0.076,0.472,0.845,0.983,1.707l3.14,5.297c0.511,0.863,1.697,1.277,2.634,0.921l6.01-2.281
					c0.938-0.356,1.567-1.456,1.4-2.444l-1.08-6.37c-0.168-0.989-0.316-1.822-0.329-1.851c-0.014-0.03,0.666-0.497,1.51-1.039
					l2.274-1.599c0.798-0.607,1.515-1.05,1.593-0.984c0.078,0.065,0.847,0.537,1.71,1.048l5.299,3.136
					c0.863,0.511,2.102,0.305,2.753-0.458l4.174-4.889c0.651-0.763,0.674-2.03,0.052-2.816l-4.015-5.07
					c-0.623-0.786-1.12-1.604-1.106-1.818s0.437-1.098,0.939-1.966l1.367-3.205c0.376-0.93,0.771-1.671,0.877-1.648
					c0.106,0.023,1.001,0.185,1.988,0.361l4.698,0.836c0.987,0.176,1.962-0.484,2.166-1.466l1.308-6.292
					c0.204-0.982-0.381-2.114-1.299-2.516L90.845,51.9c-0.919-0.402-1.63-0.72-1.58-0.708c0.05,0.013,0.1-0.797,0.112-1.8
					l-0.266-4.716c-0.094-0.998-0.076-1.839,0.04-1.869c0.116-0.029,0.924-0.458,1.796-0.953l5.378-3.051
					c0.872-0.495,1.309-1.672,0.97-2.616l-2.168-6.045c-0.338-0.944-1.426-1.592-2.417-1.44l-6.378,0.979
					c-0.991,0.152-1.82,0.285-1.843,0.296c-0.022,0.011-0.486-0.67-1.03-1.512l-3.61-4.907c-0.641-0.771-1.121-1.459-1.068-1.529
					c0.054-0.07,0.468-0.859,0.921-1.754l2.775-5.485c0.453-0.895,0.166-2.118-0.637-2.718l-5.152-3.849
					c-0.803-0.6-2.069-0.541-2.812,0.132l-4.791,4.336C68.341,13.367,67.729,13.923,67.723,13.93z"/>
			</g>
		</g>
		<g>
			<defs>
				<path id="SVGID_63_" d="M78.157,27.592c8.943,23.279-0.666,39.813-14.304,48.757c-13.644,8.946-31.95,5.138-40.89-8.499
					c-2.796-4.264-4.46-8.961-5.013-13.677l-4.045-4.496l1.683-19.729L78.157,27.592z"/>
			</defs>
			<clipPath id="SVGID_2_">
				<use xlink:href="#SVGID_63_"  overflow="visible"/>
			</clipPath>
			<g clip-path="url(#SVGID_2_)">
				<path fill-rule="evenodd" clip-rule="evenodd" fill="#E02726" d="M47.718,71.897c-7.597,0-15.192-0.008-22.787,0.005
					c-1.286,0.003-2.382-0.334-3.031-1.498c-0.274-0.492-0.479-1.096-0.482-1.65c-0.028-8.573-0.02-17.149-0.02-25.72
					c0.002-1.66,1.246-2.998,2.889-3.118c0.195-0.013,0.39-0.024,0.586-0.024c15.23-0.002,30.459,0.003,45.688-0.01
					c1.371,0,2.451,0.45,3.116,1.682c0.138,0.262,0.23,0.587,0.23,0.882c0.012,8.966,0.01,17.931,0.008,26.895
					c0,1.205-1.249,2.391-2.652,2.527c-0.31,0.028-0.626,0.027-0.937,0.027C62.791,71.897,55.252,71.897,47.718,71.897z
					 M23.275,61.012c0.704,1.244,1.678,1.967,3.19,1.963c14.171-0.022,28.342-0.012,42.511-0.012c0.195,0,0.392,0.005,0.587-0.013
					c1.258-0.128,2.047-0.894,2.636-1.959c-1.422,0.836-2.978,0.707-4.516,0.707c-13.62,0-27.243-0.001-40.865,0.005
					C25.594,61.704,24.398,61.619,23.275,61.012z M52.767,56.181c-3.408,0-6.744,0-10.069,0c0,0.979,0,1.912,0,2.853
					c3.373,0,6.709,0,10.069,0C52.767,58.068,52.767,57.135,52.767,56.181z"/>
				<path fill-rule="evenodd" clip-rule="evenodd" fill="#E02726" d="M56.745,33.979c0,1.525,0,2.991,0,4.502
					c-0.609,0-1.201,0-1.847,0c0-0.779,0-1.553,0-2.378c-4.776,0-9.502,0-14.304,0c0,0.774,0,1.565,0,2.387
					c-0.652,0-1.233,0-1.859,0c0-1.49,0-2.979,0-4.511C44.733,33.979,50.71,33.979,56.745,33.979z"/>
			</g>
		</g>
	</g>
</g>
<g id="Layer_3">
</g>
</svg>
