<?xml version="1.0" encoding="utf-8"?>
<!-- Generator: Adobe Illustrator 17.0.0, SVG Export Plug-In . SVG Version: 6.00 Build 0)  -->
<!DOCTYPE svg PUBLIC "-//W3C//DTD SVG 1.1//EN" "http://www.w3.org/Graphics/SVG/1.1/DTD/svg11.dtd">
<svg version="1.1" xmlns="http://www.w3.org/2000/svg" xmlns:xlink="http://www.w3.org/1999/xlink" x="0px" y="0px" width="100px"
	 height="100px" viewBox="0 0 100 100" enable-background="new 0 0 100 100" xml:space="preserve">
<g id="Layer_2">
</g>
<g id="Layer_1">
	<g>
		<g>
			<g>
				<path fill="#FFFFFF" d="M67.834,14.068c-0.005,0.007-0.745-0.345-1.644-0.781l-2.589-1.11c-0.931-0.363-1.684-0.716-1.675-0.784
					c0.01-0.068,0-0.94-0.021-1.939l-0.129-6.124c-0.021-0.999-0.846-1.939-1.834-2.09l-6.337-0.966
					c-0.988-0.151-2.072,0.495-2.411,1.436l-2.17,6.035c-0.338,0.94-1.431,1.75-2.429,1.799l-2.839,0.268
					c-0.991,0.13-1.816,0.197-1.833,0.148c-0.018-0.049-0.441-0.797-0.94-1.662l-3.064-5.31c-0.499-0.865-1.676-1.293-2.614-0.95
					l-6.019,2.2c-0.938,0.343-1.579,1.431-1.423,2.418l0.996,6.306c0.156,0.987-0.411,2.226-1.26,2.753L25.23,17.33
					c-0.804,0.593-1.493,1.052-1.53,1.021c-0.038-0.032-0.767-0.483-1.62-1.002l-5.236-3.186c-0.854-0.519-2.09-0.329-2.748,0.423
					l-4.222,4.826c-0.658,0.752-0.699,2.016-0.092,2.81l3.887,5.079c0.607,0.793,0.679,2.071,0.159,2.838
					c-0.52,0.768-2.048,4.485-2.096,4.475s-0.903-0.063-1.901-0.119l-5.859-0.324c-0.998-0.055-1.99,0.698-2.204,1.674L0.39,42.1
					c-0.215,0.976,0.358,2.103,1.273,2.504l5.719,2.509c0.915,0.401,1.658,1.547,1.651,2.547l0.255,4.838
					c0.1,0.994,0.139,1.819,0.086,1.833s-0.811,0.421-1.685,0.905l-5.381,2.978c-0.874,0.484-1.321,1.652-0.994,2.596l2.099,6.048
					c0.328,0.944,1.405,1.602,2.395,1.463l6.331-0.892c0.989-0.139,2.236,0.437,2.77,1.282l3.597,4.968
					c0.632,0.774,1.12,1.445,1.083,1.493s-0.445,0.811-0.906,1.697l-2.836,5.44c-0.462,0.886-0.19,2.108,0.603,2.714l5.091,3.893
					c0.794,0.607,2.055,0.562,2.804-0.1l4.826-4.27c0.748-0.662,1.363-1.206,1.365-1.208c0.003-0.003,0.74,0.352,1.64,0.787
					l2.597,1.101c0.932,0.361,1.686,0.712,1.676,0.779c-0.009,0.067,0,0.94,0.021,1.939l0.13,6.138
					c0.021,0.999,0.847,1.939,1.834,2.089l6.332,0.961c0.988,0.15,2.073-0.497,2.412-1.437l2.182-6.059
					c0.339-0.94,0.617-1.724,0.618-1.743s0.819-0.076,1.816-0.128l2.782-0.277c0.991-0.131,1.824-0.176,1.852-0.099
					s0.46,0.847,0.96,1.712l3.067,5.314c0.499,0.865,1.676,1.292,2.614,0.949l6.015-2.202c0.938-0.344,1.579-1.432,1.423-2.419
					l-1.001-6.359c-0.155-0.987-0.293-1.819-0.307-1.849c-0.013-0.03,0.669-0.487,1.516-1.017l2.284-1.566
					c0.802-0.595,1.522-1.028,1.599-0.962s0.838,0.545,1.692,1.064l5.243,3.187c0.854,0.519,2.09,0.328,2.748-0.424l4.216-4.823
					c0.658-0.752,0.696-2.014,0.084-2.805l-3.941-5.098c-0.611-0.79-1.098-1.611-1.081-1.824c0.017-0.213,0.448-1.089,0.959-1.948
					l1.4-3.177c0.386-0.922,0.788-1.656,0.893-1.632c0.106,0.024,0.995,0.196,1.977,0.383l4.671,0.888
					c0.982,0.187,1.96-0.459,2.175-1.435l1.376-6.254c0.215-0.976-0.355-2.11-1.265-2.521l-5.319-2.4
					c-0.911-0.411-1.615-0.737-1.566-0.723c0.049,0.013,0.109-0.793,0.132-1.792l-0.21-4.701c-0.082-0.996-0.054-1.833,0.061-1.861
					c0.116-0.028,0.926-0.446,1.801-0.928l5.394-2.977c0.875-0.483,1.324-1.65,0.997-2.595l-2.089-6.049
					c-0.326-0.944-1.402-1.602-2.392-1.462l-6.366,0.901c-0.989,0.14-1.817,0.263-1.839,0.274c-0.022,0.01-0.476-0.673-1.008-1.519
					l-3.54-4.931c-0.63-0.776-1.1-1.467-1.046-1.536c0.054-0.069,0.476-0.851,0.938-1.737l2.829-5.432
					c0.462-0.886,0.19-2.108-0.603-2.715l-5.089-3.895c-0.793-0.607-2.055-0.563-2.804,0.099l-4.824,4.264
					C68.456,13.514,67.839,14.061,67.834,14.068z"/>
			</g>
		</g>
		<g>
			<g>
				<g enable-background="new    ">
					<g>
						<g>
							<polygon fill="#FFFFFF" points="61.082,49.606 72.449,39.89 67.676,50.786 58.812,58.478 							"/>
							<path fill="#CD2322" d="M71.716,40.878l-4.267,9.74l-8.152,7.074l2.03-7.934L71.716,40.878 M73.182,38.902L60.837,49.454
								l-2.509,9.807l9.575-8.309L73.182,38.902L73.182,38.902z"/>
						</g>
					</g>
					<g>
						<g>
							<polygon fill="#FFFFFF" points="32.291,50.786 27.518,39.89 38.889,49.606 41.158,58.478 							"/>
							<path fill="#CD2322" d="M28.252,40.878l10.392,8.881l2.03,7.934l-8.155-7.075L28.252,40.878 M26.786,38.902l5.279,12.051
								l9.578,8.309l-2.509-9.807L26.786,38.902L26.786,38.902z"/>
						</g>
					</g>
					<g>
						<g>
							<polygon fill="#FFFFFF" points="35.245,66.032 49.71,57.614 49.71,65.107 38.548,71.699 							"/>
							<path fill="#CD2322" d="M49.435,58.092v6.858l-10.789,6.372l-3.025-5.191L49.435,58.092 M49.985,57.136l-15.116,8.797
								l3.581,6.144l11.536-6.813V57.136L49.985,57.136z"/>
						</g>
					</g>
					<g>
						<g>
							<polygon fill="#FFFFFF" points="50.26,65.107 50.26,57.614 64.726,66.032 61.421,71.699 							"/>
							<path fill="#CD2322" d="M50.535,58.092l13.815,8.039l-3.027,5.191L50.535,64.95V58.092 M49.985,57.136v8.128l11.534,6.813
								l3.582-6.144L49.985,57.136L49.985,57.136z"/>
						</g>
					</g>
				</g>
			</g>
			<g>
				<polygon fill="#CD2322" stroke="#CD2322" stroke-width="0.5498" stroke-miterlimit="10" points="49.985,23.958 56.389,37.608 
					72.741,39.038 60.626,49.384 64.8,65.537 50.034,56.95 35.171,65.537 39.329,49.439 27.227,39.038 43.56,37.652 				"/>
			</g>
		</g>
	</g>
</g>
<g id="Layer_3">
</g>
</svg>
