<?xml version="1.0" encoding="utf-8"?>
<!-- Generator: Adobe Illustrator 17.0.0, SVG Export Plug-In . SVG Version: 6.00 Build 0)  -->
<!DOCTYPE svg PUBLIC "-//W3C//DTD SVG 1.1//EN" "http://www.w3.org/Graphics/SVG/1.1/DTD/svg11.dtd">
<svg version="1.1" xmlns="http://www.w3.org/2000/svg" xmlns:xlink="http://www.w3.org/1999/xlink" x="0px" y="0px" width="50px"
	 height="50px" viewBox="0 0 50 50" enable-background="new 0 0 50 50" xml:space="preserve">
<g id="Layer_2">
</g>
<g id="Layer_1">
	<g>
		<g>
			<path fill="#E02726" d="M44.726,28.968c-0.015-0.005,0.072-0.465,0.194-1.021c0.121-0.556,0.357-2.046,0.406-2.051
				c0.049-0.004,0.569-0.131,1.156-0.281l2.452-0.629c0.587-0.15,1.028-0.768,0.98-1.372l-0.21-2.654
				c-0.048-0.604-0.579-1.155-1.181-1.225l-2.663-0.309c-0.602-0.07-1.15-0.191-1.218-0.268c-0.068-0.078-0.232-0.548-0.364-1.044
				s-0.921-2.343-0.877-2.371c0.044-0.029,0.487-0.336,0.984-0.682l1.527-1.066c0.497-0.347,0.631-1.045,0.299-1.551l-1.459-2.225
				c-0.332-0.507-1.065-0.74-1.63-0.52l-2.222,0.87c-0.564,0.221-1.008,0.391-0.987,0.378c0.021-0.013-0.307-0.377-0.731-0.811
				l-1.377-1.22c-0.467-0.386-0.824-0.743-0.795-0.792s0.185-0.568,0.347-1.152l0.677-2.452c0.161-0.584-0.155-1.273-0.703-1.532
				l-2.404-1.135c-0.548-0.259-1.289-0.071-1.648,0.418l-1.582,2.155c-0.358,0.488-0.655,0.897-0.659,0.909
				s-0.492-0.084-1.084-0.211l-2.472-0.376c-0.603-0.055-1.101-0.136-1.107-0.178s-0.165-0.548-0.354-1.124l-0.787-2.4
				c-0.189-0.576-0.834-0.979-1.434-0.898l-2.927,0.4c-0.6,0.082-1.145,0.642-1.212,1.244l-0.295,2.685
				c-0.066,0.602-0.12,1.098-0.12,1.102s-0.373,0.165-0.828,0.358c-0.456,0.193-1.753,0.81-1.733,0.784
				c0.02-0.026-0.321-0.39-0.759-0.809l-1.787-1.71c-0.438-0.419-1.19-0.461-1.672-0.095l-2.097,1.595
				C9.891,6.07,9.714,6.815,9.981,7.359l1.176,2.402c0.266,0.544,0.172,1.345-0.21,1.779s-1.294,1.641-1.316,1.63
				c-0.022-0.01-0.519-0.142-1.106-0.292l-2.448-0.626c-0.587-0.15-1.27,0.179-1.519,0.731l-1.093,2.428
				c-0.249,0.552-0.048,1.291,0.446,1.641l2.163,1.534c0.494,0.35,0.796,1.099,0.671,1.663s-0.346,2.075-0.37,2.077
				s-0.523,0.127-1.11,0.277l-2.449,0.627C2.229,23.383,1.788,24,1.835,24.603l0.209,2.657c0.047,0.604,0.578,1.158,1.18,1.23
				l2.638,0.32c0.601,0.073,1.167,0.493,1.257,0.933c0.09,0.44,0.861,2.229,0.841,2.242c-0.02,0.013-0.401,0.359-0.848,0.768
				l-1.771,1.623c-0.447,0.409-0.54,1.159-0.208,1.665l1.46,2.226c0.332,0.507,1.064,0.736,1.625,0.509l2.397-0.967
				c0.562-0.227,1.373-0.063,1.804,0.363l1.433,1.257c0.473,0.378,0.85,0.706,0.837,0.729s-0.155,0.519-0.315,1.104l-0.672,2.448
				c-0.16,0.584,0.157,1.273,0.705,1.531l2.407,1.132c0.548,0.258,1.29,0.069,1.649-0.419l1.573-2.14
				c0.359-0.488,1.137-0.784,1.729-0.658l2.504,0.37c0.603,0.054,1.1,0.121,1.104,0.15c0.004,0.029,0.161,0.523,0.35,1.099
				l0.788,2.405c0.189,0.576,0.834,0.984,1.435,0.907l3.3-0.421c0.601-0.077,1.183-0.627,1.294-1.222l0.506-2.711
				c0.111-0.595,0.202-1.084,0.202-1.086c0-0.002,0.288-0.162,0.64-0.355c0.352-0.193,1.522-0.818,1.451-0.792
				c-0.072,0.026,0.223,0.395,0.655,0.82l1.719,1.692c0.432,0.425,1.177,0.47,1.657,0.1l2.055-1.585
				c0.48-0.37,0.652-1.117,0.384-1.66l-1.195-2.418c-0.268-0.543-0.498-0.993-0.509-0.999c-0.012-0.007,0.287-0.365,0.665-0.797
				s1.287-1.625,1.322-1.609c0.035,0.016,0.543,0.152,1.13,0.302l2.45,0.627c0.587,0.15,1.27-0.179,1.519-0.732l1.091-2.428
				c0.248-0.552,0.047-1.291-0.446-1.642l-2.184-1.55C45.158,29.265,44.741,28.974,44.726,28.968z M25.874,29.274
				c-2.852,0-5.164-2.312-5.164-5.164c0-2.852,2.312-5.164,5.164-5.164c2.852,0,5.164,2.312,5.164,5.164
				C31.038,26.963,28.726,29.274,25.874,29.274z"/>
		</g>
	</g>
</g>
<g id="Layer_3">
</g>
</svg>
