<?xml version="1.0" encoding="utf-8"?>
<!-- Generator: Adobe Illustrator 17.0.0, SVG Export Plug-In . SVG Version: 6.00 Build 0)  -->
<!DOCTYPE svg PUBLIC "-//W3C//DTD SVG 1.1//EN" "http://www.w3.org/Graphics/SVG/1.1/DTD/svg11.dtd">
<svg version="1.1" xmlns="http://www.w3.org/2000/svg" xmlns:xlink="http://www.w3.org/1999/xlink" x="0px" y="0px" width="250px"
	 height="250px" viewBox="0 0 250 250" enable-background="new 0 0 250 250" xml:space="preserve">
<g id="Layer_2">
</g>
<g id="Layer_1">
	<g>
		<path fill="#231F20" d="M28.378,95.157c0.02,0.009-0.445,2.003-1.033,4.43l-1.332,6.913c-0.392,2.466-0.852,4.494-1.022,4.506
			c-0.17,0.012-2.296,0.5-4.724,1.083l-14.886,3.575c-2.428,0.583-4.286,3.099-4.128,5.591l1.012,15.988
			c0.158,2.492,2.313,4.797,4.788,5.122l15.892,2.087c2.476,0.325,5.035,2.563,5.687,4.974l2.166,6.791
			c0.845,2.35,1.446,4.329,1.337,4.399c-0.11,0.069-1.711,1.501-3.559,3.18l-11.336,10.307c-1.848,1.68-2.265,4.78-0.928,6.889
			l8.576,13.528c1.337,2.109,4.335,3.093,6.662,2.188l14.87-5.788c2.327-0.906,5.653-0.18,7.392,1.612l5.202,4.925
			c1.876,1.648,3.364,3.085,3.306,3.193c-0.058,0.109-0.771,2.129-1.585,4.49l-4.993,14.481c-0.814,2.361,0.309,5.279,2.495,6.486
			l14.032,7.742c2.186,1.206,5.296,0.635,6.911-1.27l10.334-12.194c1.614-1.905,4.695-2.76,6.846-1.899
			c2.151,0.861,12.042,2.615,12.043,2.737s0.326,2.239,0.722,4.705l2.327,14.481c0.396,2.465,2.763,4.487,5.26,4.492l16.006,0.032
			c2.497,0.005,4.944-1.994,5.437-4.442l3.084-15.3c0.493-2.448,2.896-4.872,5.34-5.387l11.679-3.197
			c2.374-0.773,4.368-1.307,4.43-1.187s1.46,1.755,3.107,3.633l10.137,11.555c1.647,1.877,4.737,2.347,6.868,1.045l13.651-8.345
			c2.131-1.302,3.164-4.284,2.298-6.626l-5.547-14.985c-0.867-2.342-0.122-5.693,1.656-7.447l10.218-11.428
			c1.553-1.956,2.934-3.503,3.069-3.439c0.135,0.065,2.217,0.654,4.626,1.31l14.794,4.029c2.409,0.656,5.248-0.657,6.307-2.918
			l6.798-14.503c1.06-2.261,0.278-5.318-1.737-6.793l-12.995-9.512c-2.015-1.475-3.67-2.686-3.677-2.691s0.465-1.995,1.049-4.423
			l1.305-6.928c0.387-2.467,0.842-4.496,1.011-4.509c0.169-0.013,2.295-0.5,4.723-1.083l14.92-3.583
			c2.428-0.583,4.284-3.099,4.125-5.591l-1.023-15.974c-0.16-2.492-2.316-4.798-4.791-5.124l-15.957-2.104
			c-2.476-0.326-4.538-0.588-4.584-0.581c-0.045,0.007-0.621-1.959-1.279-4.367l-2.156-6.645c-0.847-2.349-1.4-4.361-1.229-4.471
			c0.172-0.11,1.824-1.574,3.671-3.255l11.344-10.318c1.847-1.68,2.264-4.78,0.926-6.888l-8.579-13.516
			c-1.338-2.108-4.337-3.093-6.665-2.188l-14.995,5.83c-2.327,0.905-4.285,1.685-4.351,1.733c-0.066,0.048-1.546-1.374-3.291-3.161
			l-5.041-4.745c-1.881-1.643-3.321-3.169-3.2-3.392c0.121-0.222,0.884-2.336,1.697-4.697l4.991-14.499
			c0.813-2.361-0.311-5.279-2.498-6.485l-14.021-7.728c-2.187-1.205-5.289-0.627-6.894,1.286L161.12,23.234
			c-1.605,1.913-3.35,3.538-3.879,3.61s-2.898-0.515-5.267-1.305l-8.504-1.727c-2.456-0.451-4.464-1.042-4.461-1.313
			c0.002-0.271-0.051-2.535-0.117-5.031l-0.319-11.88c-0.067-2.496-2.165-4.543-4.662-4.548l-16.003-0.032
			c-2.497-0.005-4.965,1.989-5.484,4.432l-3.031,14.265c-0.519,2.443-0.939,4.337-0.933,4.209c0.006-0.128-1.995,0.156-4.447,0.631
			l-11.369,3.015c-2.388,0.73-4.448,1.108-4.578,0.841s-1.581-2.023-3.225-3.903l-10.14-11.588
			c-1.644-1.879-4.735-2.354-6.867-1.055l-13.658,8.321c-2.133,1.299-3.167,4.278-2.298,6.619l5.589,15.065
			c0.869,2.341,1.61,4.297,1.647,4.346s-1.39,1.521-3.172,3.27L45.785,60.746c-1.559,1.95-2.997,3.468-3.195,3.372
			s-2.331-0.711-4.741-1.366l-14.771-4.018c-2.41-0.655-5.249,0.658-6.31,2.919L9.965,76.152c-1.061,2.261-0.281,5.318,1.734,6.794
			l12.98,9.511C26.694,93.932,28.358,95.147,28.378,95.157z"/>
	</g>
</g>
<g id="Layer_3">
</g>
</svg>
