<?xml version="1.0" encoding="utf-8"?>
<!-- Generator: Adobe Illustrator 18.0.0, SVG Export Plug-In . SVG Version: 6.00 Build 0)  -->
<!DOCTYPE svg PUBLIC "-//W3C//DTD SVG 1.1//EN" "http://www.w3.org/Graphics/SVG/1.1/DTD/svg11.dtd">
<svg version="1.1" id="Capa_1" xmlns="http://www.w3.org/2000/svg" xmlns:xlink="http://www.w3.org/1999/xlink" x="0px" y="0px"
	 viewBox="0 0 152.7 70.9" enable-background="new 0 0 152.7 70.9" xml:space="preserve">
<g>
	<path fill="#C33733" d="M63.8,14.1H7.3c-2.5,0-4.6,2.5-4.6,5.5v31.4c0,3.1,2.1,5.5,4.6,5.5h98.1c2.5,0,4.6-2.5,4.6-5.5V19.7
		c0-3.1-2.1-5.5-4.6-5.5H96"/>
	<g>
		<path fill="#C33733" d="M105,8.2c0,0-0.6,0.2-1.4,0.5c-0.8,0.3-2.8,1.2-2.9,1.2s-0.6-0.6-1.2-1.2l-2.7-2.5C96.1,5.6,95,5.5,94.3,6
			l-3.1,2.4c-0.7,0.5-1,1.6-0.6,2.4l1.7,3.5c0.4,0.8,0.2,2-0.3,2.6c-0.6,0.6-1.9,2.4-1.9,2.4s-0.8-0.2-1.6-0.4L84.8,18
			c-0.9-0.2-1.9,0.3-2.2,1.1l-1.6,3.6c-0.4,0.8-0.1,1.9,0.7,2.4l3.2,2.3c0.7,0.5,1.2,1.6,1,2.4c-0.2,0.8-0.5,3-0.5,3.1
			c0,0-0.8,0.2-1.6,0.4L80,34.1c-0.9,0.2-1.5,1.1-1.4,2l0.3,3.9c0.1,0.9,0.8,1.7,1.7,1.8l3.9,0.5c0.9,0.1,1.7,0.7,1.8,1.4
			c0.1,0.6,1.3,3.3,1.2,3.3c0,0-0.6,0.5-1.2,1.1l-2.6,2.4c-0.7,0.6-0.8,1.7-0.3,2.4l2.1,3.3c0.5,0.7,1.6,1.1,2.4,0.7l3.5-1.4
			c0.8-0.3,2-0.1,2.7,0.5l2.1,1.8c0.7,0.6,1.2,1,1.2,1.1c0,0-0.2,0.8-0.5,1.6l-1,3.6c-0.2,0.9,0.2,1.9,1,2.2l3.5,1.7
			c0.8,0.4,1.9,0.1,2.4-0.6l2.3-3.1c0.5-0.7,1.7-1.2,2.5-1l3.7,0.5c0.9,0.1,1.6,0.2,1.6,0.2s0.2,0.8,0.5,1.6l1.2,3.5
			c0.3,0.8,1.2,1.4,2.1,1.3l3.9-0.6c0.9-0.1,1.6-1,1.7-1.8l0.2-3.9c0-0.9,0.1-1.6,0.1-1.6s0.6-0.2,1.4-0.5c0.8-0.3,2.8-1.2,2.9-1.2
			c0,0,0.6,0.6,1.2,1.2l2.7,2.5c0.6,0.6,1.8,0.7,2.5,0.1l3.1-2.4c0.7-0.5,1-1.6,0.6-2.4l-1.7-3.5c-0.4-0.8-0.7-1.5-0.7-1.5
			c0,0,0.4-0.5,1-1.2c0.6-0.6,1.9-2.4,2-2.4c0.1,0,0.8,0.2,1.7,0.4l3.6,0.9c0.9,0.2,1.9-0.3,2.2-1.1l1.6-3.6
			c0.4-0.8,0.1-1.9-0.7-2.4l-3.2-2.3c-0.7-0.5-1.3-0.9-1.4-1c0,0,0.1-0.7,0.3-1.5c0.2-0.8,0.5-3,0.6-3s0.8-0.2,1.7-0.4l3.6-0.9
			c0.9-0.2,1.5-1.1,1.4-2l-0.3-3.9c-0.1-0.9-0.9-1.7-1.7-1.8l-3.9-0.5c-0.9-0.1-1.7-0.3-1.8-0.4c-0.1-0.1-0.3-0.8-0.5-1.5
			c-0.2-0.7-1.4-3.4-1.3-3.5c0.1,0,0.7-0.5,1.4-1l2.2-1.6c0.7-0.5,0.9-1.5,0.4-2.3l-2.1-3.3c-0.5-0.7-1.6-1.1-2.4-0.8l-3.3,1.3
			c-0.8,0.3-1.5,0.6-1.4,0.6c0,0-0.5-0.6-1.1-1.2l-2-1.8c-0.7-0.6-1.2-1.1-1.2-1.2c0-0.1,0.3-0.8,0.5-1.7l1-3.6
			c0.2-0.9-0.2-1.9-1-2.3l-3.5-1.7c-0.8-0.4-1.9-0.1-2.4,0.6l-2.3,3.2c-0.5,0.7-1,1.3-1,1.3c0,0-0.7-0.1-1.6-0.3L116.2,7
			c-0.9-0.1-1.6-0.2-1.6-0.3c0-0.1-0.2-0.8-0.5-1.7l-1.2-3.5c-0.3-0.8-1.2-1.4-2.1-1.3l-3.9,0.6c-0.9,0.1-1.6,1-1.7,1.8l-0.2,3.9
			C105,7.5,105,8.2,105,8.2z"/>
	</g>
	<g>
		<g>
			<path fill="#FFFFFF" d="M10,31.9V18.3h9.8v2.5h-7.2v3.7h6.8v2.4h-6.8v5H10z"/>
			<path fill="#FFFFFF" d="M23.4,28c0.2,1.2,1.2,2,2.9,2c0.9,0,2-0.3,2.6-0.9l1.5,1.5c-1,1-2.7,1.6-4.1,1.6c-3.3,0-5.3-2-5.3-5.1
				c0-2.9,2-5,5.1-5c3.2,0,5.2,2,4.8,5.9H23.4z M28.6,26c-0.2-1.2-1.1-1.9-2.5-1.9c-1.3,0-2.3,0.6-2.7,1.9H28.6z"/>
			<path fill="#FFFFFF" d="M34.9,22.4l0.2,1.1c0.7-1.2,1.7-1.4,2.7-1.4c1,0,1.9,0.4,2.5,0.9l-1.1,2.1c-0.5-0.4-0.9-0.6-1.7-0.6
				c-1.2,0-2.4,0.7-2.4,2.4v5.1h-2.4v-9.6H34.9z"/>
			<path fill="#FFFFFF" d="M43.8,19.7c0,1.8-2.8,1.8-2.8,0C41,17.8,43.8,17.8,43.8,19.7z M41.2,22.3v9.6h2.4v-9.6H41.2z"/>
			<path fill="#FFFFFF" d="M53.3,22.4h2.3v9.6h-2.2l-0.1-1.4c-0.5,1.1-2,1.7-3.1,1.7c-2.8,0-4.9-1.7-4.9-5.1c0-3.3,2.2-5,5-5
				c1.3,0,2.5,0.6,3.1,1.6L53.3,22.4z M47.5,27.1c0,1.8,1.3,2.9,2.8,2.9c3.7,0,3.7-5.8,0-5.8C48.8,24.2,47.5,25.3,47.5,27.1z"/>
			<path fill="#FFFFFF" d="M67.9,31.9v-5.1c0-1.3-0.7-2.4-2-2.4c-1.3,0-2,1.1-2,2.4v5.1h-2.4v-9.6h2.2l0.2,1.2
				c0.5-1,1.6-1.3,2.5-1.3c1.1,0,2.3,0.5,2.8,1.8c0.9-1.4,2-1.7,3.2-1.7c2.7,0,4.1,1.7,4.1,4.5v5.2h-2.4v-5.2c0-1.3-0.5-2.3-1.8-2.3
				c-1.3,0-2.1,1.1-2.1,2.4v5.1H67.9z"/>
			<path fill="#FFFFFF" d="M86.5,22.4h2.3v9.6h-2.2l-0.1-1.4c-0.5,1.1-2,1.7-3.1,1.7c-2.8,0-4.9-1.7-4.9-5.1c0-3.3,2.2-5,5-5
				c1.3,0,2.5,0.6,3.1,1.6L86.5,22.4z M80.8,27.1c0,1.8,1.3,2.9,2.8,2.9c3.7,0,3.7-5.8,0-5.8C82,24.2,80.8,25.3,80.8,27.1z"/>
			<path fill="#FFFFFF" d="M93.1,18.3v7.9l3.2-3.8h2.8v0.1l-3.9,4.4l4.5,4.9v0.2h-2.9l-3.8-4.3v4.3h-2.4V18.3H93.1z"/>
			<path fill="#FFFFFF" d="M103,22.4l0.2,1.1c0.7-1.2,1.7-1.4,2.7-1.4c1,0,1.9,0.4,2.5,0.9l-1.1,2.1c-0.5-0.4-0.9-0.6-1.7-0.6
				c-1.2,0-2.4,0.7-2.4,2.4v5.1h-2.4v-9.6H103z"/>
			<path fill="#FFFFFF" d="M118.8,27.2c0,2.8-1.9,5-5,5c-3.1,0-5-2.2-5-5c0-2.7,1.9-5,5-5C116.8,22.2,118.8,24.4,118.8,27.2z
				 M111.2,27.2c0,1.5,0.9,2.8,2.6,2.8c1.7,0,2.6-1.4,2.6-2.8c0-1.4-1-2.8-2.6-2.8C112.1,24.3,111.2,25.7,111.2,27.2z"/>
		</g>
		<g>
			<path fill="#FFFFFF" d="M11.5,39.2c0.1,1,1,1.8,2.5,1.8c0.8,0,1.8-0.3,2.2-0.8l1.3,1.3c-0.9,0.9-2.3,1.4-3.6,1.4
				c-2.9,0-4.6-1.8-4.6-4.5c0-2.6,1.7-4.4,4.5-4.4c2.8,0,4.6,1.7,4.2,5.2H11.5z M16.1,37.5c-0.1-1.1-1-1.6-2.2-1.6
				c-1.1,0-2,0.5-2.3,1.6H16.1z"/>
			<path fill="#FFFFFF" d="M24.8,34.3h2.5v0.1l-2.8,4.1l2.9,4.2v0.1H25l-1.8-2.8l-1.8,2.8h-2.5v-0.1l2.9-4.2l-2.8-4.1v-0.1h2.5
				l1.6,2.8L24.8,34.3z"/>
			<path fill="#FFFFFF" d="M31.5,32v2.4h2.3v1.8h-2.3v3.6c0,0.8,0.4,1.2,1.1,1.2c0.3,0,0.7-0.1,1-0.3l0.6,1.8
				c-0.6,0.2-1.1,0.3-1.7,0.4c-1.8,0.1-3-1-3-3.1v-3.6h-1.6v-1.8h1.6v-2.2L31.5,32z"/>
			<path fill="#FFFFFF" d="M37.3,34.3l0.2,1c0.6-1,1.5-1.2,2.4-1.2c0.9,0,1.7,0.3,2.2,0.8L41,36.7c-0.4-0.4-0.8-0.5-1.5-0.5
				c-1.1,0-2.1,0.6-2.1,2.1v4.4h-2.1v-8.4H37.3z"/>
			<path fill="#FFFFFF" d="M49.4,34.3h2v8.4h-2l-0.1-1.2c-0.5,1-1.8,1.5-2.7,1.5c-2.5,0-4.3-1.5-4.3-4.5c0-2.9,1.9-4.4,4.4-4.4
				c1.1,0,2.2,0.5,2.7,1.4L49.4,34.3z M44.3,38.5c0,1.6,1.1,2.6,2.5,2.6c3.3,0,3.3-5.1,0-5.1C45.4,36,44.3,36.9,44.3,38.5z"/>
			<path fill="#FFFFFF" d="M61.3,34.3l-3.6,8.4h-2.2l-3.6-8.4h2.3l1.2,2.8l1.3,3.5l1.3-3.5l1.2-2.8H61.3z"/>
			<path fill="#FFFFFF" d="M68.9,34.3h2v8.4h-2l-0.1-1.2c-0.5,1-1.8,1.5-2.7,1.5c-2.5,0-4.3-1.5-4.3-4.5c0-2.9,1.9-4.4,4.4-4.4
				c1.1,0,2.2,0.5,2.7,1.4L68.9,34.3z M63.9,38.5c0,1.6,1.1,2.6,2.5,2.6c3.3,0,3.3-5.1,0-5.1C65,36,63.9,36.9,63.9,38.5z"/>
			<path fill="#FFFFFF" d="M79.2,33.5l1.5,1.2l-0.9,1.2c0.6,0.7,0.9,1.6,0.9,2.5c0,1-0.4,2.5-1.8,3.1c1.4,0.7,1.7,1.7,1.7,2.8
				c0,2.3-1.8,3.7-4.2,3.7c-2.4,0-4.3-1.5-4.3-3.7h2.1c0,1.1,1,1.8,2.2,1.8c1.2,0,2.1-0.6,2.1-1.8c0-1.2-1.1-1.7-2.1-1.7
				c-2.6,0-4.3-1.6-4.3-4.2c0-2.6,1.9-4.3,4.3-4.3c0.7,0,1.3,0.1,1.9,0.5L79.2,33.5z M74.3,38.3c0,1.5,1,2.3,2.2,2.3
				c1.2,0,2.2-0.9,2.2-2.3c0-1.4-1-2.4-2.2-2.4C75.3,35.9,74.3,36.8,74.3,38.3z"/>
			<path fill="#FFFFFF" d="M88.7,34.3h2v8.4h-2l-0.1-1.2c-0.5,1-1.8,1.5-2.7,1.5c-2.5,0-4.3-1.5-4.3-4.5c0-2.9,1.9-4.4,4.4-4.4
				c1.1,0,2.2,0.5,2.7,1.4L88.7,34.3z M83.6,38.5c0,1.6,1.1,2.6,2.5,2.6c3.3,0,3.3-5.1,0-5.1C84.7,36,83.6,36.9,83.6,38.5z"/>
			<path fill="#FFFFFF" d="M98.6,42.7v-4.4c0-1.3-0.7-2.2-2-2.2c-1.3,0-2.1,1.1-2.1,2.3v4.3h-2.1v-8.4h1.9l0.1,1.1
				c0.9-0.8,1.7-1.3,2.8-1.3c2,0,3.6,1.5,3.6,4.1v4.4H98.6z"/>
			<path fill="#FFFFFF" d="M108.9,34.3v1l-3.9,5.4h3.9v2h-7.1v-0.9l4-5.6h-3.7v-1.9H108.9z"/>
			<path fill="#FFFFFF" d="M116.9,34.3h2v8.4h-2l-0.1-1.2c-0.5,1-1.8,1.5-2.7,1.5c-2.5,0-4.3-1.5-4.3-4.5c0-2.9,1.9-4.4,4.4-4.4
				c1.1,0,2.2,0.5,2.7,1.4L116.9,34.3z M111.8,38.5c0,1.6,1.1,2.6,2.5,2.6c3.3,0,3.3-5.1,0-5.1C112.9,36,111.8,36.9,111.8,38.5z"/>
		</g>
		
			<line fill="none" stroke="#FFFFFF" stroke-width="0.6596" stroke-linecap="round" stroke-linejoin="round" stroke-miterlimit="10" x1="9.1" y1="44.5" x2="72.4" y2="44.5"/>
		
			<line fill="none" stroke="#FFFFFF" stroke-width="0.6596" stroke-linecap="round" stroke-linejoin="round" stroke-miterlimit="10" x1="80.2" y1="44.5" x2="119.3" y2="44.5"/>
		<g>
			<path fill="#FFFFFF" d="M8.9,48.9l2.1,2.6v-2.6h0.2V52h-0.1L9,49.4V52H8.8v-3.1H8.9z"/>
			<path fill="#FFFFFF" d="M12.2,50.3H14v0.2h-1.8v1.2h2V52h-2.2v-3.1h2.1v0.2h-1.9V50.3z"/>
			<path fill="#FFFFFF" d="M17.1,49.5c-0.3-0.3-0.6-0.4-1-0.4c-0.9,0-1.4,0.7-1.4,1.4c0,0.7,0.5,1.4,1.4,1.4c0.3,0,0.7-0.1,0.9-0.4
				v-0.9h-1.1v-0.2h1.3v1.2c-0.3,0.3-0.7,0.5-1.2,0.5c-1.1,0-1.6-0.7-1.6-1.6c0-1,0.7-1.6,1.6-1.6c0.4,0,0.8,0.2,1.1,0.5L17.1,49.5z
				"/>
			<path fill="#FFFFFF" d="M20.9,50.4c0,0.8-0.5,1.6-1.6,1.6c-1,0-1.6-0.8-1.6-1.6c0-0.8,0.5-1.6,1.6-1.6
				C20.4,48.8,20.9,49.6,20.9,50.4z M18,50.4c0,0.7,0.4,1.4,1.3,1.4c0.9,0,1.3-0.7,1.3-1.4c0-0.7-0.4-1.4-1.3-1.4
				C18.4,49.1,18,49.7,18,50.4z"/>
			<path fill="#FFFFFF" d="M24,51.6c-0.3,0.3-0.7,0.5-1.1,0.5c-1,0-1.6-0.7-1.6-1.6c0-0.8,0.5-1.6,1.6-1.6c0.4,0,0.8,0.2,1.1,0.5
				l-0.2,0.1c-0.3-0.3-0.6-0.4-1-0.4c-0.9,0-1.4,0.6-1.4,1.4c0,0.7,0.5,1.4,1.4,1.4c0.3,0,0.7-0.1,1-0.4L24,51.6z"/>
			<path fill="#FFFFFF" d="M24.6,52v-3.1h0.2V52H24.6z"/>
			<path fill="#FFFFFF" d="M28.6,50.4c0,0.8-0.5,1.6-1.6,1.6c-1,0-1.6-0.8-1.6-1.6c0-0.8,0.5-1.6,1.6-1.6
				C28.1,48.8,28.6,49.6,28.6,50.4z M25.7,50.4c0,0.7,0.4,1.4,1.3,1.4c0.9,0,1.3-0.7,1.3-1.4c0-0.7-0.4-1.4-1.3-1.4
				C26.1,49.1,25.7,49.7,25.7,50.4z"/>
			<path fill="#FFFFFF" d="M31.2,49.5c-0.2-0.4-0.6-0.4-0.9-0.4c-0.4,0-0.9,0.1-0.9,0.6c0,0.4,0.4,0.5,0.9,0.6
				c0.6,0.1,1.2,0.2,1.2,0.9c0,0.7-0.7,0.9-1.2,0.9c-0.5,0-1-0.2-1.3-0.7l0.2-0.1c0.2,0.4,0.7,0.6,1.1,0.6c0.4,0,1-0.1,1-0.7
				c0-0.5-0.5-0.6-1-0.7c-0.6-0.1-1.1-0.2-1.1-0.8c0-0.7,0.7-0.9,1.2-0.9c0.4,0,0.8,0.1,1.1,0.5L31.2,49.5z"/>
			<path fill="#FFFFFF" d="M36.2,50.4c0,0.4-0.1,0.8-0.4,1.1l0.4,0.4L36.1,52l-0.4-0.4c-0.3,0.2-0.6,0.4-1.1,0.4
				c-1.1,0-1.6-0.8-1.6-1.6c0-0.8,0.5-1.6,1.6-1.6C35.7,48.8,36.2,49.6,36.2,50.4z M33.3,50.4c0,0.7,0.4,1.4,1.3,1.4
				c0.9,0,1.3-0.6,1.3-1.4c0-0.7-0.4-1.4-1.3-1.4C33.9,49.1,33.3,49.7,33.3,50.4z"/>
			<path fill="#FFFFFF" d="M39.1,48.9v1.9c0,1.6-2.4,1.6-2.4,0v-1.9h0.2v1.9c0,1.3,1.9,1.3,1.9,0v-1.9H39.1z"/>
			<path fill="#FFFFFF" d="M40,50.3h1.8v0.2H40v1.2h2V52h-2.2v-3.1h2.1v0.2H40V50.3z"/>
			<path fill="#FFFFFF" d="M45.7,49.5c-0.2-0.4-0.6-0.4-0.9-0.4c-0.4,0-0.9,0.1-0.9,0.6c0,0.4,0.4,0.5,0.9,0.6
				c0.6,0.1,1.2,0.2,1.2,0.9c0,0.7-0.7,0.9-1.2,0.9c-0.5,0-1-0.2-1.3-0.7l0.2-0.1c0.2,0.4,0.7,0.6,1.1,0.6c0.4,0,1-0.1,1-0.7
				c0-0.5-0.5-0.6-1-0.7c-0.6-0.1-1.1-0.2-1.1-0.8c0-0.7,0.7-0.9,1.2-0.9c0.4,0,0.8,0.1,1.1,0.5L45.7,49.5z"/>
			<path fill="#FFFFFF" d="M46.7,50.3h1.8v0.2h-1.8v1.2h2V52h-2.2v-3.1h2.1v0.2h-1.9V50.3z"/>
			<path fill="#FFFFFF" d="M53.1,49.2L51.9,51h-0.1l-1.2-1.8V52h-0.2v-3.1c0.1,0,0.2,0,0.3,0l1.2,1.8l1.2-1.8h0.3V52h-0.2V49.2z"/>
			<path fill="#FFFFFF" d="M56.4,48.9v1.9c0,1.6-2.4,1.6-2.4,0v-1.9h0.2v1.9c0,1.3,1.9,1.3,1.9,0v-1.9H56.4z"/>
			<path fill="#FFFFFF" d="M57.3,50.3h1.8v0.2h-1.8v1.2h2V52H57v-3.1h2.1v0.2h-1.9V50.3z"/>
			<path fill="#FFFFFF" d="M62.4,48.9L61.1,52h-0.3l-1.3-3.1h0.3l1.1,2.8l1.1-2.8H62.4z"/>
			<path fill="#FFFFFF" d="M63,50.3h1.8v0.2H63v1.2h2V52h-2.2v-3.1h2.1v0.2H63V50.3z"/>
			<path fill="#FFFFFF" d="M65.7,48.9l2.1,2.6v-2.6H68V52h-0.1l-2.1-2.6V52h-0.2v-3.1H65.7z"/>
			<path fill="#FFFFFF" d="M72.5,51.6c-0.3,0.3-0.7,0.5-1.1,0.5c-1,0-1.6-0.7-1.6-1.6c0-0.8,0.5-1.6,1.6-1.6c0.4,0,0.8,0.2,1.1,0.5
				l-0.2,0.1c-0.3-0.3-0.6-0.4-1-0.4c-0.9,0-1.4,0.6-1.4,1.4c0,0.7,0.5,1.4,1.4,1.4c0.3,0,0.7-0.1,1-0.4L72.5,51.6z"/>
			<path fill="#FFFFFF" d="M76,50.4c0,0.8-0.5,1.6-1.6,1.6c-1,0-1.6-0.8-1.6-1.6c0-0.8,0.5-1.6,1.6-1.6C75.5,48.8,76,49.6,76,50.4z
				 M73.2,50.4c0,0.7,0.4,1.4,1.3,1.4c0.9,0,1.3-0.7,1.3-1.4c0-0.7-0.4-1.4-1.3-1.4C73.6,49.1,73.1,49.7,73.2,50.4z"/>
			<path fill="#FFFFFF" d="M76.7,48.9l2.1,2.6v-2.6H79V52h-0.1l-2.1-2.6V52h-0.2v-3.1H76.7z"/>
			<path fill="#FFFFFF" d="M81.2,50.3H83v0.2h-1.8v1.2h2V52h-2.2v-3.1h2.1v0.2h-1.9V50.3z"/>
			<path fill="#FFFFFF" d="M86.4,49.2L85.2,51h-0.1l-1.2-1.8V52h-0.2v-3.1c0.1,0,0.2,0,0.3,0l1.2,1.8l1.2-1.8h0.3V52h-0.2V49.2z"/>
			<path fill="#FFFFFF" d="M87.5,50.9V52h-0.2v-3.1c0.5,0,0.9,0,1.4,0c1.3,0,1.3,2,0,2H87.5z M87.5,49.1v1.6h1.1c1,0,1-1.6,0-1.6
				H87.5z"/>
			<path fill="#FFFFFF" d="M92.7,52h-0.3l-1.1-1.2h-0.8V52h-0.2v-3.1c0.5,0,0.9,0,1.4,0c0.7,0,1,0.5,1,1c0,0.5-0.3,0.9-1,0.9
				L92.7,52z M90.4,50.6h1.1c0.5,0,0.8-0.3,0.8-0.7c0-0.4-0.2-0.7-0.8-0.7h-1.1V50.6z"/>
			<path fill="#FFFFFF" d="M93.3,50.3h1.8v0.2h-1.8v1.2h2V52H93v-3.1h2.1v0.2h-1.9V50.3z"/>
			<path fill="#FFFFFF" d="M96,48.9l2.1,2.6v-2.6h0.2V52h-0.1l-2.1-2.6V52h-0.2v-3.1H96z"/>
			<path fill="#FFFFFF" d="M101.6,50.4c0,0.8-0.5,1.6-1.6,1.6c-0.3,0-0.7,0-1,0v-3.1c0.4,0,0.7,0,1,0
				C101,48.9,101.6,49.6,101.6,50.4z M99.2,49.1v2.6h0.8c0.9,0,1.3-0.7,1.3-1.4c0-0.6-0.4-1.3-1.3-1.3H99.2z"/>
			<path fill="#FFFFFF" d="M102.2,52v-3.1h0.2V52H102.2z"/>
			<path fill="#FFFFFF" d="M105.8,49.2l-1.2,1.8h-0.1l-1.2-1.8V52h-0.2v-3.1c0.1,0,0.2,0,0.3,0l1.2,1.8l1.2-1.8h0.3V52h-0.2V49.2z"
				/>
			<path fill="#FFFFFF" d="M106.7,52v-3.1h0.2V52H106.7z"/>
			<path fill="#FFFFFF" d="M107.9,50.3h1.8v0.2h-1.8v1.2h2V52h-2.2v-3.1h2.1v0.2h-1.9V50.3z"/>
			<path fill="#FFFFFF" d="M110.5,48.9l2.1,2.6v-2.6h0.2V52h-0.1l-2.1-2.6V52h-0.2v-3.1H110.5z"/>
			<path fill="#FFFFFF" d="M114.4,49.1h-1.1v-0.2h2.5v0.2h-1.1V52h-0.2V49.1z"/>
			<path fill="#FFFFFF" d="M119.2,50.4c0,0.8-0.5,1.6-1.6,1.6c-1,0-1.6-0.8-1.6-1.6c0-0.8,0.5-1.6,1.6-1.6
				C118.7,48.8,119.2,49.6,119.2,50.4z M116.3,50.4c0,0.7,0.4,1.4,1.3,1.4c0.9,0,1.3-0.7,1.3-1.4c0-0.7-0.4-1.4-1.3-1.4
				C116.8,49.1,116.3,49.7,116.3,50.4z"/>
		</g>
	</g>
	<g>
		<path fill="#FFFFFF" d="M124.6,51.8c-1.8,0-2.6-1.8-2.6-3.4c0-1.7,0.7-3.6,2.8-3.6c2.2,0,2.6,1.7,2.6,3.5c0,0.7,0.2,1.9,1.1,1.9
			h0.7v-5.4h1.5v7.1c-0.8,0-1.5,0-2.3,0c-2,0-2.6-1.8-2.6-3.5c0-0.7-0.1-1.9-1.1-1.9c-0.9,0-1.4,0.9-1.4,2c0,0.9,0.4,1.7,1.2,1.8
			V51.8z"/>
		<path fill="#FFFFFF" d="M125.8,43.7c-5.2,0-5.2-7.7,0-7.7h1.3c5.2,0,5.2,7.7,0,7.7H125.8z M127.1,42.1c3.2,0,3.2-4.4,0-4.4h-1.3
			c-3.1,0-3.2,4.4,0,4.4H127.1z"/>
		<path fill="#FFFFFF" d="M129.4,35.3V34h-5.8v1.4h-1.5v-3h7.3v-1.2h1.4v4.1H129.4z"/>
		<path fill="#FFFFFF" d="M123.7,23.6v4.7h1.5v-1.7c0-1.9,0.8-3.5,2.8-3.5c2,0,2.9,1.7,2.9,3.4c0,1.9-0.7,3.6-2.7,3.6v-1.6
			c1,0,1.2-1.1,1.2-1.9c0-0.8-0.4-1.8-1.4-1.8c-1,0-1.3,1-1.3,1.9v3.3c-1.6,0-3,0-4.6,0v-6.3H123.7z"/>
	</g>
</g>
</svg>
