<?xml version="1.0" encoding="utf-8"?>
<!-- Generator: Adobe Illustrator 18.0.0, SVG Export Plug-In . SVG Version: 6.00 Build 0)  -->
<!DOCTYPE svg PUBLIC "-//W3C//DTD SVG 1.1//EN" "http://www.w3.org/Graphics/SVG/1.1/DTD/svg11.dtd">
<svg version="1.1" id="Capa_1" xmlns="http://www.w3.org/2000/svg" xmlns:xlink="http://www.w3.org/1999/xlink" x="0px" y="0px"
	 viewBox="0 0 228.3 98.4" enable-background="new 0 0 228.3 98.4" xml:space="preserve">
<g>
	<path fill="#C23437" d="M228.3,0H45.3C-1.4,0.2,0.2,44.6,0.2,44.6L0,44.8v53.6c0,0,0,0,0,0h228.3c0,0,0,0,0,0L228.3,0
		C228.3,0,228.3,0,228.3,0"/>
	<path fill="#FFFFFF" d="M171.8,43.8c-3.9,0-6.8,3.6-6.8,8.3c0,4.8,2.9,8.7,6.8,8.7c3.8,0,6.8-4,6.8-8.7
		C178.6,47.5,175.6,43.8,171.8,43.8 M171.6,67.9c-8.3,0-15.4-7.1-15.4-15.6c0-8.6,7.1-15.6,15.6-15.6c8.3,0,15.3,6.9,15.3,15.4
		c0,4.1-1.7,8-4.6,11.1C179.5,66.2,175.5,67.9,171.6,67.9"/>
	<path fill="#FFFFFF" d="M171.8,43.9c-3.9,0-6.9,3.5-6.9,8.2c0,4.8,3,8.7,6.9,8.7c3.8,0,6.5-4,6.5-8.7
		C178.3,47.5,175.6,43.9,171.8,43.9 M171.6,68.1c-8.3,0-15.4-7.2-15.4-15.6c0-8.6,7.2-15.7,15.6-15.7c8.3,0,15.2,7,15.2,15.6
		c0,4.1-1.7,8-4.6,11.1C179.5,66.3,175.5,68.1,171.6,68.1"/>
	<path fill="#FFFFFF" d="M78,67.9c-2.9,0-4.2-2.8-4.2-4.7V48.7c0-0.4,0.1-3.6-3.7-3.6c-3.2,0-4.1,1.1-4.2,3.7v14.8
		c0,0.3-0.1,1.8-1.2,2.9c-0.7,0.7-1.7,1.1-2.9,1.1c-3,0-4.4-2.3-4.4-3.7V48.5c0-1.1-0.5-3.5-3.9-3.5c-3.2,0-4,1.8-4,3.5v2.6v13.4
		v0.1c-0.1,1.1-1.7,3.3-4.5,3.3c-2.5,0-4-2.1-4-4V42c0-0.3-0.1-1.6,0.7-2.6c0.7-0.8,1.7-1.2,3.1-1.2c0,0,0.1,0,0.2,0
		c0.5,0,2,0.1,3.1,1.6c1-1,3.2-2.7,6.8-2.7c4.8-0.1,7.1,1.5,8.7,3.1c1.1-1.1,3.6-3.1,7.4-3.1c4.8,0,7.2,2.3,8.6,4
		c1.2,1.4,2.5,4.3,2.5,7.3v14.9C82.2,64.9,81.3,67.9,78,67.9"/>
	<path fill="#FFFFFF" d="M102.2,53.4c-0.5,0.1-1.1,0.2-1.9,0.3c-1.4,0.2-3.1,0.5-5.1,1c-1.4,0.3-2.9,1.8-3,3.4
		c0,0.7,0.2,1.3,0.7,1.9c0.7,0.8,2,1.2,3.6,1.2c0.1,0,0.2,0,0.3,0c4-0.1,4.9-2.2,5.2-3.7C102.2,56.1,102.2,54.5,102.2,53.4
		 M94.8,67.9c-3,0-5.6-1-7.9-3l0,0c-0.2-0.1-3.6-3.5-2.4-8.9l0,0c1.1-4.1,5.1-6.5,12.7-7.7l0.1,0c2.2-0.5,4.1-0.9,4.6-2.1
		c0.5-1.2,0.4-2.1-1.4-2.9c-3.1-1-5.6-0.3-7.1,2.1c-0.8,1.2-2.4,2.1-4,2.1c-1.6,0-2.8-0.9-3.2-2.4c-0.4-1.6-0.1-3.2,0.9-4.4
		c1.8-2.4,6.1-3.9,11-3.9c7.2,0,11.8,3,11.8,7.8c0,3.9,0.3,18.4,0.3,19.1c0,0.3,0.1,1.9-0.9,3.1c-0.6,0.7-1.5,1.1-2.6,1.1
		c-0.1,0-0.1,0-0.2,0h0c-2.4,0-3.5-1-4-1.8C101.1,66.6,98.2,67.9,94.8,67.9"/>
	<path fill="#FFFFFF" d="M116.6,67.9c-1.8,0-3.1-1-3.8-2.7c-0.5-1.3-0.5-2.7-0.5-3.2V37c0-0.5-0.2-3.5,1.1-5
		c0.7-0.8,1.6-1.2,2.7-1.2h0.4c1.3,0,4.2,0,4.2,6v12.7l8.3-8.5c0,0,2.8-3.1,4.8-3.1c1.2,0,1.9,0.5,2.7,1.4c0.6,0.7,0.9,1.4,0.8,2.2
		c-0.2,1.4-2.3,3.2-2.6,3.6l-5,5l7.4,10.7c0.2,0.2,1.4,1.8,1.1,3.6c-0.1,1-0.6,1.8-1.5,2.4c-0.7,0.5-1.5,0.8-2.3,0.8
		c-2.3,0-4-3-4.2-3.2l-6-8.5l-3.5,3.4l-0.1,4.4C120.7,65.2,119.9,67.9,116.6,67.9"/>
	<path fill="#FFFFFF" d="M143.8,67.9c-0.2,0-1.5-0.1-2.5-1c-1.1-1.1-1.5-3-1.5-6.7V42.4c0-0.3-0.1-2.5,1.2-3.9
		c0.7-0.8,1.7-1.2,2.9-1.2c1.9,0,3,1.2,3.6,2.1c0.5-0.5,1.3-1.2,2.2-1.7c1-0.5,2-0.8,2.9-0.8c1.2,0,2.8,0.5,4,2.6l0,0.1
		c0.4,1,0.3,2-0.2,2.9c-0.5,0.8-1.6,2-4.2,2.4c-4.1,0.7-4.2,5-4.2,5.2c0,1.4,0.1,10.4,0.1,10.8c0,0.3,0.2,3.9-1.6,5.7
		C145.8,67.5,144.9,67.9,143.8,67.9L143.8,67.9z"/>
</g>
</svg>
